<?xml version="1.0" standalone="no"?>
<!DOCTYPE svg PUBLIC "-//W3C//DTD SVG 1.1//EN" "http://www.w3.org/Graphics/SVG/1.1/DTD/svg11.dtd" >
<!--
2016-2-8: Created.
-->
<svg xmlns="http://www.w3.org/2000/svg">
<metadata>
Created by FontForge 20120731 at Mon Feb  8 20:23:54 2016
 By root
Created by root with FontForge 2.0 (http://fontforge.sf.net)
</metadata>
<defs>
<font id="icons_mobiscroll" horiz-adv-x="512" >
  <font-face 
    font-family="icons_mobiscroll"
    font-weight="500"
    font-stretch="normal"
    units-per-em="512"
    panose-1="2 0 6 3 0 0 0 0 0 0"
    ascent="448"
    descent="-64"
    bbox="-0.584459 -67 528 480"
    underline-thickness="25.6"
    underline-position="-51.2"
    unicode-range="U+F100-FBF8"
  />
    <missing-glyph />
    <glyph glyph-name="uniFB88" unicode="&#x688;" arabic-form="isolated" 
d="M256 -64c-141 0 -256 115 -256 256s115 256 256 256s256 -115 256 -256s-115 -256 -256 -256zM256 427c-129 0 -235 -106 -235 -235s106 -235 235 -235s235 106 235 235s-106 235 -235 235zM256 -0c-94 0 -171 77 -171 171c0 6 5 10 11 10s11 -4 11 -10
c0 -82 67 -150 149 -150s149 68 149 150c0 6 5 10 11 10s11 -4 11 -10c0 -94 -77 -171 -171 -171zM203 224c-6 0 -11 5 -11 11c0 18 -14 32 -32 32s-32 -14 -32 -32c0 -6 -5 -11 -11 -11s-10 5 -10 11c0 29 24 53 53 53s53 -24 53 -53c0 -6 -4 -11 -10 -11zM395 224
c-6 0 -11 5 -11 11c0 18 -14 32 -32 32s-32 -14 -32 -32c0 -6 -5 -11 -11 -11s-10 5 -10 11c0 29 24 53 53 53s53 -24 53 -53c0 -6 -4 -11 -10 -11z" />
    <glyph glyph-name="uniFBD3" unicode="&#x6ad;" arabic-form="isolated" 
d="M224 160v128h-96l128 128l128 -128h-96v-128h-64zM320 232l192 -72v-128l-256 -96l-256 96v128l192 72v-49l-147 -55l211 -79l211 79l-147 55v49z" />
    <glyph glyph-name="uniFBF8" unicode="&#xfbf8;" arabic-form="initial" 
d="M496 12c20 -18 22 -46 4 -64s-46 -16 -64 4l-103 121c-11 13 -16 26 -16 37c-34 -29 -77 -46 -125 -46c-106 0 -192 86 -192 192s86 192 192 192s192 -86 192 -192c0 -48 -17 -91 -46 -125c11 0 24 -5 37 -16zM192 128c71 0 128 57 128 128s-57 128 -128 128
s-128 -57 -128 -128s57 -128 128 -128zM96 288h192v-64h-192v64z" />
    <glyph glyph-name="uniFBEF" unicode="&#xfbef;" arabic-form="final" 
d="M259 176l59 -158c0 -1 1 -1 2 -2c-20 -7 -42 -11 -64 -11c-19 0 -37 3 -54 8l57 163v0zM448 192c0 -69 -38 -130 -95 -162l58 166c11 27 15 47 15 66c0 7 -1 14 -2 20c15 -27 24 -57 24 -90zM64 192c0 27 6 53 17 76l91 -244c-64 30 -108 94 -108 168zM96 295
c34 51 93 84 160 84c50 0 96 -19 130 -49h-3c-19 0 -32 -16 -32 -33c0 -15 9 -29 19 -44c7 -12 16 -29 16 -52c0 -16 -7 -34 -15 -60l-19 -62l-70 201c12 1 22 1 22 1c10 1 9 17 -1 16c0 0 -31 -3 -51 -3c-19 0 -51 3 -51 3c-10 1 -11 -15 -1 -16c0 0 10 0 20 -1l30 -80
l-42 -123l-70 203c12 1 22 1 22 1c10 1 9 17 -1 16c0 0 -31 -3 -51 -3c-4 0 -8 1 -12 1v0zM426 448c47 0 86 -39 86 -86v-340c0 -47 -39 -86 -86 -86h-340c-47 0 -86 39 -86 86v340c0 47 39 86 86 86h340zM480 192c0 124 -100 224 -224 224s-224 -100 -224 -224
s100 -224 224 -224s224 100 224 224z" />
    <glyph glyph-name="uniFBF3" unicode="&#xfbf3;" horiz-adv-x="509" arabic-form="final" 
d="M424 128l-7 208c0 9 6 16 15 16h64c9 0 15 -7 13 -16l-37 -208h-48zM480 60c0 -15 -13 -28 -28 -28h-8c-15 0 -28 13 -28 28v8c0 15 13 28 28 28h8c15 0 28 -13 28 -28v-8zM192 352c106 0 192 -72 192 -160s-86 -160 -192 -160s-192 72 -192 160s86 160 192 160zM320 224
v0v32h-96v-37l-16 -16l-53 53h21v32h-96v-32h21l91 -91v-37h-48v-32h128v32h-48v37l59 59h37z" />
    <glyph glyph-name="uniFB6F" unicode="&#x6a6;" arabic-form="final" 
d="M96 192v21h32v-21h-32zM128 235h-98c-17 0 -30 14 -30 32v149c0 18 13 32 30 32h217c17 0 30 -14 30 -32v-128h-21v128c0 6 -4 11 -9 11h-217c-5 0 -9 -5 -9 -11v-149c0 -6 4 -11 9 -11h98v-21zM96 192h-43c-6 0 -10 5 -10 11s4 10 10 10h43c6 0 11 -4 11 -10
s-5 -11 -11 -11zM0 277v22h277v-22h-277zM331 -64c-6 0 -11 5 -11 11v42c0 6 5 11 11 11s10 -5 10 -11v-42c0 -6 -4 -11 -10 -11zM423 -64h-188c-6 0 -11 5 -11 11s5 10 11 10h188c6 0 11 -4 11 -10s-5 -11 -11 -11zM467 -21h-273c-25 0 -45 22 -45 49v179c0 27 20 49 45 49
h273c25 0 45 -22 45 -49v-179c0 -27 -20 -49 -45 -49zM194 235c-13 0 -23 -13 -23 -28v-179c0 -15 10 -28 23 -28h273c13 0 24 13 24 28v179c0 15 -11 28 -24 28h-273zM501 43h-341c-6 0 -11 4 -11 10s5 11 11 11h341c6 0 11 -5 11 -11s-5 -10 -11 -10zM331 32v0
c6 0 10 -5 10 -11s-4 -10 -10 -10s-11 4 -11 10s5 11 11 11z" />
    <glyph glyph-name="uniFB7A" unicode="&#x686;" horiz-adv-x="299" arabic-form="isolated" 
d="M149 -64c-6 0 -10 5 -10 11v85c0 6 4 11 10 11s11 -5 11 -11v-85c0 -6 -5 -11 -11 -11zM224 427h-149c-6 0 -11 4 -11 10s5 11 11 11h149c6 0 11 -5 11 -11s-5 -10 -11 -10zM117 256h-42c-6 0 -11 5 -11 11s5 10 11 10h42c6 0 11 -4 11 -10s-5 -11 -11 -11zM117 213h-42
c-6 0 -11 5 -11 11s5 11 11 11h42c6 0 11 -5 11 -11s-5 -11 -11 -11zM117 171h-42c-6 0 -11 4 -11 10s5 11 11 11h42c6 0 11 -5 11 -11s-5 -10 -11 -10zM288 320h-277c-6 0 -11 5 -11 11s5 10 11 10h277c6 0 11 -4 11 -10s-5 -11 -11 -11zM107 331v106h21v-106h-21zM171 331
v106h21v-106h-21zM149 21c-47 0 -85 43 -85 96v214h21v-214c0 -41 29 -74 64 -74s64 33 64 74v214h22v-214c0 -53 -39 -96 -86 -96z" />
    <glyph glyph-name="uniFB56" unicode="&#x67e;" horiz-adv-x="491" arabic-form="isolated" 
d="M192 149v0c12 0 21 -9 21 -21s-9 -21 -21 -21s-21 9 -21 21s9 21 21 21zM192 171c-24 0 -43 -19 -43 -43s19 -43 43 -43s43 19 43 43s-19 43 -43 43zM192 192v0c35 0 64 -29 64 -64s-29 -64 -64 -64s-64 29 -64 64s29 64 64 64zM192 235c-59 0 -107 -48 -107 -107
s48 -107 107 -107s107 48 107 107s-48 107 -107 107zM192 256v0c71 0 128 -57 128 -128s-57 -128 -128 -128s-128 57 -128 128s57 128 128 128zM192 299c-94 0 -171 -77 -171 -171s77 -171 171 -171s171 77 171 171s-77 171 -171 171zM192 320v0c106 0 192 -86 192 -192
s-86 -192 -192 -192s-192 86 -192 192s86 192 192 192zM184 136l235 234l15 -15l-234 -235zM416 396c-29 -13 -61 -34 -66 -55c-1 -4 -4 -17 17 -38c12 -12 22 -18 32 -18c24 0 47 36 61 67h-23h-21v21v23zM437 427v0v-54h54s-35 -109 -92 -109c-14 0 -30 7 -47 24
c-85 85 85 139 85 139zM373 320v75h22v-75h-22zM11 -64c-3 0 -6 1 -8 3c-4 4 -4 11 0 15l46 46c4 4 11 4 15 0s4 -11 0 -15l-46 -46c-2 -2 -4 -3 -7 -3zM373 -64c-3 0 -5 1 -7 3l-46 46c-4 4 -4 11 0 15s11 4 15 0l46 -46c4 -4 4 -11 0 -15c-2 -2 -5 -3 -8 -3z" />
    <glyph glyph-name="uniFBE5" unicode="&#x6d0;" horiz-adv-x="480" arabic-form="final" 
d="M201 409c13 13 23 8 23 -10v-414c0 -18 -10 -23 -23 -10l-121 121h-80v192h80l121 121v0zM480 138v-42h-42l-54 54l-54 -54h-42v42l54 54l-54 54v42h42l54 -54l54 54h42v-42l-54 -54z" />
    <glyph glyph-name="uniFB97" unicode="&#x6b3;" horiz-adv-x="384" arabic-form="final" 
d="M171 128c0 14 7 21 21 21s21 -7 21 -21s-7 -21 -21 -21s-21 7 -21 21zM192 43c-3 0 -6 1 -8 3s-3 4 -3 7v64c0 3 1 6 3 8s5 3 8 3s6 -1 8 -3s3 -5 3 -8v-64c0 -3 -1 -5 -3 -7s-5 -3 -8 -3zM384 -64h-384v320h384v-320zM21 -43h342v278h-342v-278zM320 245h-21v75
c0 29 -11 54 -32 75s-46 32 -75 32s-54 -11 -75 -32s-32 -46 -32 -75h-21c0 35 13 65 38 90s55 38 90 38s65 -13 90 -38s38 -55 38 -90v-75z" />
    <glyph glyph-name="uniFBE9" unicode="&#x649;" horiz-adv-x="480" arabic-form="medial" 
d="M0 192v156l192 26v-182h-192zM224 379l256 37v-224h-256v187zM480 160v-224l-256 36v188h256zM192 -24l-192 26v158h192v-184z" />
    <glyph glyph-name="uniFB5F" unicode="&#x67a;" horiz-adv-x="427" arabic-form="final" 
d="M427 107h-427v85c0 24 19 43 43 43h107c4 0 7 1 9 4s2 7 1 10c-7 17 -11 35 -11 54v81c0 35 29 64 64 64s64 -29 64 -64v-81c0 -19 -3 -37 -10 -54c-1 -3 -1 -7 1 -10s5 -4 9 -4h107c24 0 43 -19 43 -43v-85zM21 128h384v64c0 12 -9 21 -21 21h-107c-11 0 -21 5 -27 14
s-7 20 -3 30c6 15 9 30 9 46v81c0 24 -19 43 -43 43s-42 -19 -42 -43v-81c0 -16 3 -31 9 -46c4 -10 2 -21 -4 -30s-15 -14 -26 -14h-107c-12 0 -22 -9 -22 -21v-64zM395 -64h-267c-3 0 -6 1 -8 3s-3 5 -3 8v40l-22 -45c-2 -4 -6 -6 -10 -6h-53c-6 0 -11 5 -11 11v170
c0 6 5 11 11 11h363c6 0 10 -5 10 -11v-170c0 -6 -4 -11 -10 -11zM139 -43h245v150h-341v-150h36l39 80c2 4 7 6 12 5s9 -5 9 -10v-75zM352 -64c-6 0 -11 5 -11 11v106c0 6 5 11 11 11s11 -5 11 -11v-106c0 -6 -5 -11 -11 -11zM309 -64c-6 0 -10 5 -10 11v85c0 6 4 11 10 11
s11 -5 11 -11v-85c0 -6 -5 -11 -11 -11zM267 -64c-6 0 -11 5 -11 11v53c0 6 5 11 11 11s10 -5 10 -11v-53c0 -6 -4 -11 -10 -11zM192 384c0 14 7 21 21 21s22 -7 22 -21s-8 -21 -22 -21s-21 7 -21 21z" />
    <glyph glyph-name="uniFBAE" unicode="&#x6d2;" arabic-form="isolated" 
d="M480 -64h-448c-6 0 -11 5 -11 11v42c0 6 5 11 11 11s11 -5 11 -11v-32h426v32c0 6 5 11 11 11s11 -5 11 -11v-42c0 -6 -5 -11 -11 -11zM501 -21h-490c-6 0 -11 4 -11 10v64c0 29 24 54 53 54h104c70 49 38 120 12 177c-11 24 -20 42 -20 57c0 70 54 106 107 106
s107 -36 107 -106c0 -15 -9 -33 -20 -57c-26 -57 -58 -128 12 -177h104c29 0 53 -25 53 -54v-64c0 -6 -5 -10 -11 -10zM21 -0h470v53c0 18 -14 32 -32 32h-107c-2 0 -4 1 -6 2c-89 59 -48 148 -22 206c9 20 17 38 17 48c0 58 -44 85 -85 85s-85 -27 -85 -85
c0 -10 8 -29 17 -49c26 -58 67 -146 -22 -205c-2 -1 -4 -2 -6 -2h-107c-18 0 -32 -14 -32 -32v-53z" />
    <glyph glyph-name="uniFB51" unicode="&#x671;" arabic-form="final" 
d="M256 448c141 0 256 -115 256 -256s-115 -256 -256 -256s-256 115 -256 256s115 256 256 256zM256 -16c115 0 208 93 208 208s-93 208 -208 208s-208 -93 -208 -208s93 -208 208 -208zM160 288h192v-192h-192v192z" />
    <glyph glyph-name="uniFB79" unicode="&#x683;" arabic-form="medial" 
d="M85 320h-32c-24 0 -42 19 -42 43v21c0 35 29 64 64 64h53c6 0 11 -5 11 -11v-64c0 -29 -25 -53 -54 -53zM75 427c-24 0 -43 -19 -43 -43v-21c0 -12 9 -22 21 -22h32c18 0 32 14 32 32v54h-42zM203 320h-32c-29 0 -54 24 -54 53v64c0 6 5 11 11 11h53c35 0 64 -29 64 -64
v-21c0 -24 -18 -43 -42 -43zM139 427v-54c0 -18 14 -32 32 -32h32c12 0 21 10 21 22v21c0 24 -19 43 -43 43h-42zM11 363c-6 0 -11 4 -11 10v22c0 6 5 10 11 10s10 -4 10 -10v-22c0 -6 -4 -10 -10 -10zM245 363c-6 0 -10 4 -10 10v22c0 6 4 10 10 10s11 -4 11 -10v-22
c0 -6 -5 -10 -11 -10zM128 213c-24 0 -43 19 -43 43s19 43 43 43s43 -19 43 -43s-19 -43 -43 -43zM128 277c-12 0 -21 -9 -21 -21s9 -21 21 -21s21 9 21 21s-9 21 -21 21zM469 -64h-64c-24 0 -42 19 -42 43v202c0 41 33 75 74 75s75 -34 75 -75v-202c0 -24 -19 -43 -43 -43z
M437 235c-29 0 -53 -25 -53 -54v-202c0 -12 9 -22 21 -22h64c12 0 22 10 22 22v202c0 29 -25 54 -54 54zM459 235h-43c-6 0 -11 4 -11 10v43c0 6 5 11 11 11h43c6 0 10 -5 10 -11v-43c0 -6 -4 -10 -10 -10zM427 256h21v21h-21v-21zM501 -21h-128c-6 0 -10 4 -10 10
s4 11 10 11h128c6 0 11 -5 11 -11s-5 -10 -11 -10zM501 171h-128c-6 0 -10 4 -10 10s4 11 10 11h128c6 0 11 -5 11 -11s-5 -10 -11 -10zM155 -64c-85 0 -155 70 -155 155v80c0 53 43 96 96 96c6 0 11 -5 11 -11s-5 -11 -11 -11c-41 0 -75 -33 -75 -74v-80
c0 -74 60 -134 134 -134s133 60 133 134v181c0 38 31 69 69 69h38c29 0 53 -24 53 -53c0 -6 -5 -11 -11 -11s-10 5 -10 11c0 18 -14 32 -32 32h-38c-26 0 -48 -22 -48 -48v-181c0 -85 -69 -155 -154 -155z" />
    <glyph glyph-name="uniFB9C" unicode="&#x6b1;" horiz-adv-x="341" arabic-form="initial" 
d="M171 -61l-9 12c-7 10 -162 235 -162 326c0 94 77 171 171 171s170 -77 170 -171c0 -91 -155 -316 -162 -326zM171 427c-82 0 -150 -68 -150 -150c0 -72 117 -251 150 -301c33 50 149 229 149 301c0 82 -67 150 -149 150zM171 203c-41 0 -75 33 -75 74s34 75 75 75
s74 -34 74 -75s-33 -74 -74 -74zM171 331c-29 0 -54 -25 -54 -54s25 -53 54 -53s53 24 53 53s-24 54 -53 54z" />
    <glyph glyph-name="uniFBAD" unicode="&#x6be;" arabic-form="medial" 
d="M341 149c-1 0 -3 0 -4 1c-4 2 -6 6 -6 10v75h-32c-6 0 -11 4 -11 10s5 11 11 11h42c6 0 11 -5 11 -11v-59l67 67c2 2 5 3 8 3h64v171h-299v-75c0 -6 -5 -11 -11 -11s-10 5 -10 11v85c0 6 4 11 10 11h320c6 0 11 -5 11 -11v-192c0 -6 -5 -10 -11 -10h-70l-82 -83
c-2 -2 -5 -3 -8 -3zM341 -64h-341v42c0 26 17 49 41 58l77 28v38h21v-53l-91 -33c-16 -6 -27 -21 -27 -38v-21h299v21c0 17 -10 32 -26 38l-92 33v56h21v-41l78 -28c24 -9 40 -32 40 -58v-42zM169 79c-52 0 -95 50 -95 112s43 112 95 112s94 -50 94 -112s-42 -112 -94 -112z
M169 281c-41 0 -74 -40 -74 -90s33 -91 74 -91s73 41 73 91s-32 90 -73 90zM230 187c-20 0 -35 9 -49 27c-15 -15 -40 -25 -63 -25c-14 0 -26 3 -38 9l10 19c9 -5 18 -7 28 -7c21 0 47 13 54 27l9 17l10 -17c14 -24 27 -32 51 -27h7h2l3 -21h-5h-3c-6 -1 -11 -2 -16 -2z
M395 341v0c6 0 10 -4 10 -10s-4 -11 -10 -11s-11 5 -11 11s5 10 11 10zM341 341v0c6 0 11 -4 11 -10s-5 -11 -11 -11s-10 5 -10 11s4 10 10 10zM288 341v0c6 0 11 -4 11 -10s-5 -11 -11 -11s-11 5 -11 11s5 10 11 10z" />
    <glyph glyph-name="uniFBE1" unicode="&#x6c5;" arabic-form="final" 
d="M214 416c6 0 10 -6 10 -17v-414c0 -11 -4 -17 -10 -17c-4 0 -8 2 -13 7l-121 121h-80v192h80l121 121c5 5 9 7 13 7v0zM512 160h-96v-96h-64v96h-96v64h96v96h64v-96h96v-64z" />
    <glyph glyph-name="uniFB87" unicode="&#x68e;" arabic-form="final" 
d="M448 32v320h21v-320h-21zM96 384v21h320v-21h-320zM53 32v320h22v-320h-22zM96 -21v21h320v-21h-320zM107 341h-107v107h107v-107zM21 363h64v64h-64v-64zM512 341h-107v107h107v-107zM427 363h64v64h-64v-64zM107 -64h-107v107h107v-107zM21 -43h64v64h-64v-64zM512 -64
h-107v107h107v-107zM427 -43h64v64h-64v-64z" />
    <glyph glyph-name="uniFBA3" unicode="&#x6bb;" horiz-adv-x="469" arabic-form="medial" 
d="M235 -64c-92 0 -192 19 -192 59v288h21v-288c0 -13 61 -38 171 -38s170 25 170 38v288h22v-288c0 -40 -100 -59 -192 -59zM235 224c-92 0 -192 19 -192 59s100 58 192 58s192 -18 192 -58s-100 -59 -192 -59zM235 320c-110 0 -171 -24 -171 -37s61 -38 171 -38
s170 25 170 38s-60 37 -170 37zM64 160h-11c-29 0 -53 24 -53 53s24 54 53 54h11v-107zM43 244c-12 -4 -22 -17 -22 -31s10 -26 22 -30v61zM416 160h-11v107h11c29 0 53 -25 53 -54s-24 -53 -53 -53zM427 244v-61c12 4 21 16 21 30s-9 27 -21 31zM309 43c-14 0 -27 5 -37 15
s-16 24 -16 38v59v5h-21v-21c0 -24 -19 -43 -43 -43s-43 19 -43 43v27c-20 2 -39 6 -56 11c-6 2 -9 7 -7 13s7 9 13 7c18 -6 40 -9 62 -10l10 -1v-47c0 -12 9 -22 21 -22s21 10 21 22v42h64v-26v-59c0 -9 4 -17 10 -23s14 -9 22 -9c18 0 32 14 32 32v95l9 1c7 2 14 4 20 6
s12 -1 14 -7s-1 -11 -7 -13c-4 -1 -9 -3 -14 -4v-78c0 -29 -25 -53 -54 -53zM427 256h-22v32c0 76 -62 139 -138 139h-64c-76 0 -139 -63 -139 -139v-32h-21v32c0 88 72 160 160 160h64c88 0 160 -72 160 -160v-32z" />
    <glyph glyph-name="uniFBE0" unicode="&#x6c5;" arabic-form="isolated" 
d="M419 14c-6 0 -12 3 -16 7c-9 9 -9 23 0 32c41 41 64 96 64 154s-23 113 -64 154c-9 9 -9 23 0 32s23 9 32 0c50 -50 77 -116 77 -186s-27 -136 -77 -186c-4 -4 -10 -7 -16 -7v0zM339 57c-6 0 -12 2 -16 6c-9 9 -9 23 0 32c62 62 62 162 0 224c-9 9 -9 23 0 32s23 9 32 0
c38 -38 59 -90 59 -144s-21 -106 -59 -144c-4 -4 -10 -6 -16 -6v0zM258 99c-6 0 -12 3 -16 7c-9 9 -9 23 0 32c38 38 38 100 0 138c-9 9 -9 23 0 32s23 9 32 0c56 -56 56 -146 0 -202c-4 -4 -10 -7 -16 -7v0zM189 411c12 12 22 8 22 -9v-390c0 -17 -10 -21 -22 -9l-114 114
h-75v180h75l114 114v0z" />
    <glyph glyph-name="uniFBEE" unicode="&#xfbee;" arabic-form="isolated" 
d="M64 192c0 27 6 53 17 76l91 -244c-64 30 -108 94 -108 168zM386 201v0c0 -16 -7 -34 -15 -60l-19 -62l-70 201c12 1 22 1 22 1c10 1 9 17 -1 16c0 0 -31 -3 -51 -3c-19 0 -51 3 -51 3c-10 1 -11 -15 -1 -16c0 0 10 0 20 -1l30 -80l-42 -123l-70 203c12 1 22 1 22 1
c10 1 9 17 -1 16c0 0 -31 -3 -51 -3c-4 0 -7 1 -12 1c34 51 93 84 160 84c50 0 96 -19 130 -49h-3c-19 0 -32 -16 -32 -33c0 -15 9 -29 19 -44c7 -12 16 -29 16 -52zM259 176v0l59 -158c0 -1 1 -1 2 -2c-20 -7 -42 -11 -64 -11c-19 0 -37 3 -54 8zM424 282
c15 -27 24 -57 24 -90c0 -69 -38 -130 -95 -162l58 166c11 27 15 47 15 66c0 7 -1 14 -2 20zM256 448c141 0 256 -115 256 -256s-115 -256 -256 -256s-256 115 -256 256s115 256 256 256zM256 -32c124 0 224 100 224 224s-100 224 -224 224s-224 -100 -224 -224
s100 -224 224 -224z" />
    <glyph glyph-name="uniFBA6" unicode="&#x6c1;" horiz-adv-x="256" arabic-form="isolated" 
d="M190 341h-124l-26 107h176zM83 363h90l16 64h-122zM145 -64h-34l-3 6c-6 11 -14 24 -22 38c-36 64 -86 151 -86 212c0 77 51 128 128 128s128 -51 128 -128c0 -61 -50 -148 -86 -212c-8 -14 -16 -27 -22 -38zM124 -43h8c6 10 12 22 19 34c35 62 84 146 84 201
c0 65 -42 107 -107 107s-107 -42 -107 -107c0 -55 49 -139 84 -201c7 -12 13 -24 19 -34zM128 128c-24 0 -43 19 -43 43s19 42 43 42s43 -18 43 -42s-19 -43 -43 -43zM128 192c-12 0 -21 -9 -21 -21s9 -22 21 -22s21 10 21 22s-9 21 -21 21zM117 -53v192h22v-192h-22z
M85 306v46h22v-46h-22zM149 306v46h22v-46h-22z" />
    <glyph glyph-name="uniFBA4" unicode="&#x6c0;" horiz-adv-x="448" arabic-form="isolated" 
d="M217 -54v0c-68 0 -217 59 -217 235c0 141 101 256 224 256c130 0 224 -108 224 -256c0 -51 -33 -147 -83 -147c-16 0 -31 10 -45 30c-11 16 -23 25 -32 25c-5 0 -9 -2 -13 -7c-11 -14 -20 -47 -9 -101c2 -8 0 -15 -5 -21c-10 -12 -29 -14 -44 -14zM224 416
c-112 0 -203 -106 -203 -235c0 -160 135 -214 196 -214v0c16 0 25 4 28 7c1 1 1 1 1 3c-10 52 -6 95 13 118c8 10 18 15 29 15c12 0 30 -5 49 -33c7 -10 17 -22 28 -22c29 0 62 75 62 126c0 136 -86 235 -203 235zM160 11c-29 0 -53 24 -53 53s24 53 53 53s53 -24 53 -53
s-24 -53 -53 -53zM160 96c-18 0 -32 -14 -32 -32s14 -32 32 -32s32 14 32 32s-14 32 -32 32zM96 160v0c-24 0 -43 19 -43 43c0 11 5 22 13 30s19 12 30 12s22 -4 30 -12s13 -19 13 -30s-5 -22 -13 -30s-19 -13 -30 -13zM96 224c-6 0 -11 -2 -15 -6s-6 -9 -6 -15
c0 -12 9 -22 21 -22v-10v10c6 0 11 3 15 7s6 9 6 15s-2 11 -6 15s-9 6 -15 6zM149 256v0c-24 0 -42 19 -42 43c0 11 4 22 12 30s19 12 30 12s23 -4 31 -12s12 -19 12 -30s-4 -22 -12 -30s-20 -13 -31 -13zM149 320c-6 0 -11 -2 -15 -6s-6 -9 -6 -15c0 -12 9 -22 21 -22v-10
v10c6 0 11 3 15 7s7 9 7 15s-3 11 -7 15s-9 6 -15 6zM245 299v0c-24 0 -42 18 -42 42c0 11 4 22 12 30s19 13 30 13s23 -5 31 -13s12 -19 12 -30s-4 -22 -12 -30s-20 -12 -31 -12zM245 363c-6 0 -11 -3 -15 -7s-6 -9 -6 -15c0 -12 9 -21 21 -21v-11v11c6 0 11 2 15 6
s7 9 7 15s-3 11 -7 15s-9 7 -15 7zM341 224v0c-24 0 -42 19 -42 43c0 11 4 22 12 30s19 12 30 12s23 -4 31 -12s12 -19 12 -30s-4 -22 -12 -30s-20 -13 -31 -13zM341 288c-6 0 -11 -2 -15 -6s-6 -9 -6 -15c0 -12 9 -22 21 -22v-10v10c6 0 11 3 15 7s7 9 7 15s-3 11 -7 15
s-9 6 -15 6z" />
    <glyph glyph-name="uniFB8E" unicode="&#x6a9;" horiz-adv-x="341" arabic-form="isolated" 
d="M288 -64h-235c-29 0 -53 24 -53 53v406c0 29 24 53 53 53h235c29 0 53 -24 53 -53v-406c0 -29 -24 -53 -53 -53zM53 427c-18 0 -32 -14 -32 -32v-406c0 -18 14 -32 32 -32h235c18 0 32 14 32 32v406c0 18 -14 32 -32 32h-235zM331 341h-320c-6 0 -11 5 -11 11s5 11 11 11
h320c6 0 10 -5 10 -11s-4 -11 -10 -11zM331 21h-320c-6 0 -11 5 -11 11s5 11 11 11h320c6 0 10 -5 10 -11s-4 -11 -10 -11zM171 11v0c12 0 21 -10 21 -22s-9 -21 -21 -21s-22 9 -22 21s10 22 22 22zM224 384h-107c-6 0 -10 5 -10 11s4 10 10 10h107c6 0 11 -4 11 -10
s-5 -11 -11 -11z" />
    <glyph glyph-name="uniFB7F" unicode="&#x687;" arabic-form="final" 
d="M469 21h-426c-24 0 -43 19 -43 43v256c0 24 19 43 43 43h426c24 0 43 -19 43 -43v-256c0 -24 -19 -43 -43 -43zM43 341c-12 0 -22 -9 -22 -21v-256c0 -12 10 -21 22 -21h426c12 0 22 9 22 21v256c0 12 -10 21 -22 21h-426zM256 137l-187 121c-5 3 -6 9 -3 14s9 7 14 4
l176 -114l176 114c5 3 11 1 14 -4s2 -11 -3 -14zM64 85c-3 0 -7 2 -9 5c-3 5 -2 12 3 15l96 64c5 3 12 2 15 -3s2 -12 -3 -15l-96 -64c-2 -1 -4 -2 -6 -2zM448 85c-2 0 -4 1 -6 2l-96 64c-5 3 -6 10 -3 15s10 6 15 3l96 -64c5 -3 6 -10 3 -15c-2 -3 -6 -5 -9 -5z" />
    <glyph glyph-name="uniFBB0" unicode="&#x6d3;" horiz-adv-x="507" arabic-form="isolated" 
d="M81 140c-3 0 -7 1 -9 3l-69 81c-4 4 -3 11 1 15s11 3 15 -1l60 -70l50 78c3 5 10 6 15 3s6 -10 3 -15l-58 -89c-2 -3 -5 -5 -8 -5v0zM497 113c-3 0 -7 2 -9 5l-52 77l-59 -71c-4 -5 -10 -6 -15 -2s-5 10 -1 15l68 82c2 3 6 4 9 4s6 -2 8 -5l59 -88c3 -5 3 -12 -2 -15
c-2 -1 -4 -2 -6 -2zM257 -0c-50 0 -98 19 -135 55c-4 4 -4 11 0 15s11 5 15 1c42 -42 101 -59 159 -45c84 20 141 99 131 185c-1 6 3 11 9 12s11 -3 12 -9c11 -96 -52 -187 -147 -209c-15 -3 -29 -5 -44 -5zM81 140c-5 0 -10 3 -11 8c-12 50 -3 101 24 145s69 74 119 86
c69 16 141 -7 188 -60c4 -4 3 -11 -1 -15s-11 -3 -15 1c-42 47 -106 68 -167 53c-44 -10 -82 -37 -106 -76s-31 -85 -21 -129c1 -6 -2 -12 -8 -13h-2z" />
    <glyph glyph-name="uniFB9B" unicode="&#x6b1;" arabic-form="final" 
d="M256 128c-76 0 -138 72 -138 160s62 160 138 160s138 -72 138 -160s-62 -160 -138 -160zM256 427c-64 0 -117 -63 -117 -139s53 -139 117 -139s117 63 117 139s-53 139 -117 139zM512 -64h-512v72c0 31 20 60 50 71l131 36v44h21v-60l-146 -41c-20 -7 -35 -28 -35 -50
v-51h469v51c0 22 -14 42 -35 50l-146 41v60h21v-44l131 -36c30 -11 51 -40 51 -71v-72zM350 307h-3c-24 1 -51 16 -69 37c-12 -16 -30 -26 -52 -30c-38 -7 -83 8 -96 21l15 15c6 -6 43 -21 77 -15c21 4 37 14 46 32l9 18l9 -17c12 -21 40 -39 62 -40c10 0 17 3 21 10l18 -12
c-8 -12 -21 -19 -37 -19z" />
    <glyph glyph-name="uniFB8C" unicode="&#x691;" horiz-adv-x="472" arabic-form="isolated" 
d="M302 -64h-302l1 11c5 65 42 104 109 116v12h-22v64h128v-64h-21v-12c66 -11 101 -50 106 -116zM23 -43h256c-7 51 -38 78 -96 86l-9 1v52h21v21h-85v-21h21v-52l-9 -1c-59 -8 -91 -36 -99 -86zM189 160c-3 0 -5 1 -7 3c-4 4 -4 11 0 15l259 260c4 4 12 4 16 0
s4 -11 0 -15l-260 -260c-2 -2 -5 -3 -8 -3zM223 193c-3 0 -6 1 -8 3c-34 34 -7 113 61 181c32 32 68 56 102 68c3 1 6 1 9 -1s5 -6 5 -9v-72c0 -6 -5 -11 -11 -11s-11 5 -11 11v57c-26 -12 -54 -33 -79 -58c-62 -62 -82 -129 -61 -150c4 -4 4 -12 0 -16c-2 -2 -4 -3 -7 -3z
M407 277h-100c-6 0 -11 5 -11 11s5 11 11 11h100c6 0 11 -5 11 -11s-5 -11 -11 -11zM254 182c-16 0 -29 4 -39 14c-4 4 -4 11 0 15s11 4 15 0c17 -17 58 -7 103 24h-69c-6 0 -11 4 -11 10s5 11 11 11h101c4 0 8 -3 10 -7s0 -9 -3 -12c-43 -36 -86 -55 -118 -55zM439 320h-90
c-6 0 -10 5 -10 11s4 10 10 10h84c20 37 23 67 8 82c-4 4 -4 11 0 15s12 4 16 0c23 -23 20 -64 -8 -113c-2 -3 -6 -5 -10 -5z" />
    <glyph glyph-name="uniFB7D" unicode="&#x686;" horiz-adv-x="509" arabic-form="medial" 
d="M88 15c-3 0 -5 2 -7 4c-12 12 -12 33 0 45c13 12 33 12 45 0c4 -4 11 -4 15 0s4 11 0 15c-6 6 -9 13 -9 22s3 17 9 23c12 12 33 12 45 0c4 -4 11 -4 15 0s4 11 0 15c-12 12 -12 33 0 45s34 12 46 0c2 -2 4 -3 7 -3v0c3 0 6 1 8 3s3 5 3 8s-1 6 -3 8c-6 6 -10 13 -10 22
s4 17 10 23s13 9 22 9v0c9 0 17 -3 23 -9c4 -4 11 -4 15 0s4 11 0 15c-6 6 -9 14 -9 23s3 16 9 22c12 12 33 12 45 0c4 -4 12 -4 16 0c2 2 3 5 3 8s-1 5 -3 7c-12 13 -12 33 0 45c13 12 33 12 45 0c4 -4 4 -11 0 -15s-11 -4 -15 0s-11 4 -15 0s-4 -11 0 -15
c6 -6 9 -13 9 -22s-3 -17 -9 -23c-12 -12 -34 -12 -46 0c-4 4 -11 4 -15 0c-2 -2 -3 -4 -3 -7s1 -6 3 -8c12 -13 12 -33 0 -45s-33 -12 -45 0c-2 2 -5 3 -8 3v0c-3 0 -5 -1 -7 -3s-3 -5 -3 -8s1 -5 3 -7c6 -6 9 -14 9 -23s-3 -17 -9 -23s-14 -9 -23 -9v0c-9 0 -16 3 -22 9
c-4 4 -11 4 -15 0s-4 -11 0 -15c6 -6 9 -13 9 -22s-3 -17 -9 -23c-12 -12 -34 -12 -46 0c-4 4 -11 4 -15 0c-2 -2 -3 -4 -3 -7s1 -6 3 -8c12 -12 12 -33 0 -45s-33 -12 -45 0c-4 4 -11 4 -15 0s-4 -11 0 -15s4 -11 0 -15c-2 -2 -5 -4 -8 -4zM103 -34c-20 0 -38 8 -52 22
c-29 29 -29 77 0 106l301 302c14 14 33 22 53 22s39 -8 53 -22c29 -29 29 -77 0 -106l-302 -302c-14 -14 -33 -22 -53 -22zM405 396c-14 0 -28 -5 -38 -15l-301 -302c-21 -21 -21 -55 0 -76c10 -10 23 -15 37 -15s28 5 38 15l302 302c21 21 21 55 0 76c-10 10 -24 15 -38 15
zM187 -62v0c-27 0 -53 12 -75 34l16 15c18 -18 38 -28 59 -28c19 0 38 8 52 22l226 226c24 24 37 68 -6 112l16 15c50 -52 39 -109 6 -142l-227 -226c-18 -18 -42 -28 -67 -28zM42 47c-3 0 -6 1 -8 3c-50 51 -38 110 -6 142l226 226c40 40 93 38 142 -5c4 -4 5 -11 1 -15
s-11 -5 -15 -1c-41 35 -82 37 -113 6l-226 -226c-26 -26 -34 -71 6 -112c4 -4 4 -11 0 -15c-2 -2 -4 -3 -7 -3z" />
    <glyph glyph-name="uniFB93" unicode="&#x6af;" arabic-form="final" 
d="M480 11h-448c-18 0 -32 14 -32 32v21c0 6 5 11 11 11h490c6 0 11 -5 11 -11v-21c0 -18 -14 -32 -32 -32zM21 53v-10c0 -6 5 -11 11 -11h448c6 0 11 5 11 11v10h-470zM437 96h-362c-18 0 -32 14 -32 32v213c0 18 14 32 32 32h362c18 0 32 -14 32 -32v-213
c0 -18 -14 -32 -32 -32zM75 352c-6 0 -11 -5 -11 -11v-213c0 -6 5 -11 11 -11h362c6 0 11 5 11 11v213c0 6 -5 11 -11 11h-362zM427 139h-342v192h342v-192zM107 160h298v149h-298v-149z" />
    <glyph glyph-name="uniFBE6" unicode="&#x6d0;" arabic-form="initial" 
d="M128 352l-32 -32l-64 64v32h32zM160 448h32v-64h-32v64zM288 288h64v-32h-64v32zM320 384l-64 -64l-32 32l64 64h32v-32zM0 288h64v-32h-64v32zM160 160h32v-64h-32v64zM32 160l64 64l32 -32l-64 -64h-32v32zM505 7c9 -9 9 -25 0 -34l-30 -30c-9 -9 -25 -9 -34 0
l-318 318c-9 9 -9 25 0 34l30 30c9 9 25 9 34 0zM240 176l32 32l-96 96l-32 -32z" />
    <glyph glyph-name="uniFBAB" unicode="&#x6be;" horiz-adv-x="469" arabic-form="final" 
d="M96 -43v0c-13 0 -25 3 -37 8c-3 1 -6 5 -7 8s0 6 3 9l38 38v30h-30l-38 -38c-3 -3 -7 -3 -10 -2s-6 3 -7 6c-15 36 -8 77 20 105c18 18 42 28 68 28c11 0 21 -2 31 -5l155 156c-12 34 -3 73 23 99c18 18 42 28 68 28c13 0 26 -3 38 -8c3 -1 5 -5 6 -8s0 -6 -3 -9l-38 -38
v-30h31l37 37c3 3 6 4 10 3c3 -1 7 -3 8 -6c15 -36 7 -77 -21 -105c-18 -18 -42 -28 -68 -28c-11 0 -20 2 -30 5l-156 -156c12 -34 3 -73 -23 -99c-18 -18 -42 -28 -68 -28zM83 -20c4 -1 9 -1 13 -1c20 0 39 7 53 21c22 22 28 54 16 82c-2 4 -1 9 2 12l166 166c3 3 7 4 11 2
c9 -4 19 -6 29 -6c20 0 39 8 53 22c18 18 25 42 21 66l-28 -28c-2 -2 -5 -4 -8 -4h-45c-6 0 -11 5 -11 11v45c0 3 1 6 3 8l29 28c-4 1 -10 1 -14 1c-20 0 -38 -8 -52 -22c-22 -22 -28 -54 -16 -82c2 -4 0 -8 -3 -11l-165 -166c-3 -3 -8 -4 -12 -2c-9 4 -19 6 -29 6
c-20 0 -39 -8 -53 -22c-18 -18 -24 -42 -20 -66l28 28c2 2 4 3 7 3h46c6 0 10 -4 10 -10v-45c0 -3 -1 -6 -3 -8zM427 -43c-11 0 -22 5 -30 13l-98 98c-4 4 -4 11 0 15l45 45c4 4 11 4 15 0l98 -98c8 -8 12 -19 12 -30s-4 -22 -12 -30s-19 -13 -30 -13zM321 75l91 -90
c8 -8 22 -8 30 0c4 4 6 9 6 15s-2 11 -6 15l-91 91zM79 333l15 15l121 -122l-15 -15zM283 42c-3 0 -5 1 -7 3c-4 4 -4 11 0 15l90 91c4 4 11 4 15 0s4 -11 0 -15l-90 -91c-2 -2 -5 -3 -8 -3zM71 315c-3 0 -5 1 -7 3l-61 60c-2 2 -3 5 -3 8s1 5 3 7l30 31c4 4 11 4 15 0
l61 -61c2 -2 3 -4 3 -7s-1 -6 -3 -8l-30 -30c-2 -2 -5 -3 -8 -3zM26 386l45 -45l15 15l-45 45zM246 166l15 15l78 -78l-15 -15z" />
    <glyph glyph-name="uniFBEC" unicode="&#xfbec;" arabic-form="isolated" 
d="M256 -64c-141 0 -256 115 -256 256s115 256 256 256s256 -115 256 -256s-115 -256 -256 -256zM256 400c-115 0 -208 -93 -208 -208s93 -208 208 -208s208 93 208 208s-93 208 -208 208zM373 147l11 -38l-218 -64l-12 38zM128 288c0 18 14 32 32 32s32 -14 32 -32
s-14 -32 -32 -32s-32 14 -32 32zM320 288c0 18 14 32 32 32s32 -14 32 -32s-14 -32 -32 -32s-32 14 -32 32z" />
    <glyph glyph-name="uniFBED" unicode="&#xfbed;" arabic-form="final" 
d="M256 448c141 0 256 -115 256 -256s-115 -256 -256 -256s-256 115 -256 256s115 256 256 256zM352 320c-18 0 -32 -14 -32 -32s14 -32 32 -32s32 14 32 32s-14 32 -32 32zM128 288c0 -18 14 -32 32 -32s32 14 32 32s-14 32 -32 32s-32 -14 -32 -32zM166 45l218 64l-11 38
l-219 -64z" />
    <glyph glyph-name="uniFB82" unicode="&#x68d;" arabic-form="isolated" 
d="M437 -43c-29 0 -53 25 -53 54s24 53 53 53s54 -24 54 -53s-25 -54 -54 -54zM437 43c-18 0 -32 -14 -32 -32s14 -32 32 -32s32 14 32 32s-14 32 -32 32zM139 -43h-43c-6 0 -11 5 -11 11v363c0 18 14 32 32 32s32 -14 32 -32v-363c0 -6 -4 -11 -10 -11zM107 -21h21v352
c0 6 -5 10 -11 10s-10 -4 -10 -10v-352zM288 -43c-41 0 -75 34 -75 75s34 75 75 75s75 -34 75 -75s-34 -75 -75 -75zM288 85c-29 0 -53 -24 -53 -53s24 -53 53 -53s53 24 53 53s-24 53 -53 53zM384 139h-3c-6 1 -8 7 -7 13l21 85c1 6 7 9 13 8s9 -7 8 -13l-22 -85
c-1 -5 -5 -8 -10 -8zM288 160c-3 0 -6 1 -8 3l-21 21c-4 4 -4 12 0 16s11 4 15 0l22 -22c4 -4 4 -11 0 -15c-2 -2 -5 -3 -8 -3zM181 75c-3 0 -5 1 -7 3c-4 4 -4 11 0 15l96 96c4 4 11 4 15 0s4 -11 0 -15l-96 -96c-2 -2 -5 -3 -8 -3zM288 85c-3 0 -6 1 -8 3c-4 4 -4 12 0 16
l54 53c2 2 4 3 7 3h118c6 0 10 -5 10 -11s-4 -10 -10 -10h-113l-50 -51c-2 -2 -5 -3 -8 -3zM139 -43h-128c-6 0 -11 5 -11 11s5 11 11 11h128c6 0 10 -5 10 -11s-4 -11 -10 -11zM96 64h-64c-6 0 -11 5 -11 11s5 10 11 10h64c6 0 11 -4 11 -10s-5 -11 -11 -11zM343 -11v22h53
v-22h-53zM501 -11h-22v22h12v101l-39 29c-3 2 -4 5 -4 8v118c0 18 -14 32 -32 32h-43c-100 0 -181 -82 -181 -182v-106h41v-22h-52c-6 0 -10 5 -10 11v117c0 112 90 203 202 203h43c29 0 53 -24 53 -53v-112l39 -29c3 -2 4 -6 4 -9v-117c0 -6 -5 -11 -11 -11z" />
    <glyph glyph-name="uniFB57" unicode="&#x67e;" horiz-adv-x="427" arabic-form="final" 
d="M352 192h-43v21h43c6 0 11 5 11 11v128c0 18 -14 32 -32 32h-235c-18 0 -32 -14 -32 -32v-128c0 -6 5 -11 11 -11h42v-21h-42c-18 0 -32 14 -32 32v128c0 29 24 53 53 53h235c29 0 53 -24 53 -53v-128c0 -18 -14 -32 -32 -32zM320 384h-64c-6 0 -11 5 -11 11v42
c0 6 5 11 11 11h64c6 0 11 -5 11 -11v-42c0 -6 -5 -11 -11 -11zM267 405h42v22h-42v-22zM171 384h-64c-6 0 -11 5 -11 11v42c0 6 5 11 11 11h64c6 0 10 -5 10 -11v-42c0 -6 -4 -11 -10 -11zM117 405h43v22h-43v-22zM75 21h-64c-6 0 -11 5 -11 11v32c0 24 19 43 43 43h32
c6 0 10 -5 10 -11v-64c0 -6 -4 -11 -10 -11zM21 43h43v42h-21c-12 0 -22 -9 -22 -21v-21zM75 -64h-43c-18 0 -32 14 -32 32v64c0 6 5 11 11 11h64c6 0 10 -5 10 -11v-85c0 -6 -4 -11 -10 -11zM21 21v-53c0 -6 5 -11 11 -11h32v64h-43zM416 21h-64c-6 0 -11 5 -11 11v64
c0 6 5 11 11 11h32c24 0 43 -19 43 -43v-32c0 -6 -5 -11 -11 -11zM363 43h42v21c0 12 -9 21 -21 21h-21v-42zM395 -64h-43c-6 0 -11 5 -11 11v85c0 6 5 11 11 11h64c6 0 11 -5 11 -11v-64c0 -18 -14 -32 -32 -32zM363 -43h32c6 0 10 5 10 11v53h-42v-64zM309 21h-192
c-6 0 -10 5 -10 11v32c0 24 18 43 42 43h128c24 0 43 -19 43 -43v-32c0 -6 -5 -11 -11 -11zM128 43h171v21c0 12 -10 21 -22 21h-128c-12 0 -21 -9 -21 -21v-21zM139 139c-18 0 -32 14 -32 32v53c0 18 14 32 32 32s32 -14 32 -32v-53c0 -18 -14 -32 -32 -32zM139 235
c-6 0 -11 -5 -11 -11v-53c0 -6 5 -11 11 -11s10 5 10 11v53c0 6 -4 11 -10 11zM288 139c-18 0 -32 14 -32 32v53c0 18 14 32 32 32s32 -14 32 -32v-53c0 -18 -14 -32 -32 -32zM288 235c-6 0 -11 -5 -11 -11v-53c0 -6 5 -11 11 -11s11 5 11 11v53c0 6 -5 11 -11 11zM331 341
h-235c-6 0 -11 5 -11 11s5 11 11 11h235c6 0 10 -5 10 -11s-4 -11 -10 -11zM117 320c-6 0 -10 5 -10 11v21c0 6 4 11 10 11s11 -5 11 -11v-21c0 -6 -5 -11 -11 -11zM160 0c-6 0 -11 5 -11 11v42c0 6 5 11 11 11s11 -5 11 -11v-42c0 -6 -5 -11 -11 -11zM267 0
c-6 0 -11 5 -11 11v42c0 6 5 11 11 11s10 -5 10 -11v-42c0 -6 -4 -11 -10 -11zM160 192v21h107v-21h-107zM75 85c-6 0 -11 5 -11 11v107c0 6 5 10 11 10s10 -4 10 -10v-107c0 -6 -4 -11 -10 -11zM352 85c-6 0 -11 5 -11 11v107c0 6 5 10 11 10s11 -4 11 -10v-107
c0 -6 -5 -11 -11 -11zM352 -64h-277c-6 0 -11 5 -11 11s5 10 11 10h277c6 0 11 -4 11 -10s-5 -11 -11 -11zM309 -64c-6 0 -10 5 -10 11v74h-171v-74c0 -6 -5 -11 -11 -11s-10 5 -10 11v85c0 6 4 11 10 11h192c6 0 11 -5 11 -11v-85c0 -6 -5 -11 -11 -11z" />
    <glyph glyph-name="uniFB66" unicode="&#x679;" arabic-form="isolated" 
d="M352 21h-299c-18 0 -32 14 -32 32v192c0 18 14 32 32 32h299c18 0 32 -14 32 -32v-192c0 -18 -14 -32 -32 -32zM53 256c-6 0 -10 -5 -10 -11v-192c0 -6 4 -10 10 -10h299c6 0 11 4 11 10v192c0 6 -5 11 -11 11h-299zM128 96c-24 0 -43 19 -43 43s19 42 43 42
s43 -18 43 -42s-19 -43 -43 -43zM128 160c-12 0 -21 -9 -21 -21s9 -22 21 -22s21 10 21 22s-9 21 -21 21zM277 96c-24 0 -42 19 -42 43s18 42 42 42s43 -18 43 -42s-19 -43 -43 -43zM277 160c-12 0 -21 -9 -21 -21s9 -22 21 -22s22 10 22 22s-10 21 -22 21zM277 160h-149
c-6 0 -11 5 -11 11s5 10 11 10h149c6 0 11 -4 11 -10s-5 -11 -11 -11zM245 256c-6 0 -10 5 -10 11v42c0 6 -5 11 -11 11h-213c-6 0 -11 5 -11 11s5 10 11 10h213c18 0 32 -14 32 -32v-42c0 -6 -5 -11 -11 -11zM331 256c-6 0 -11 5 -11 11v64c0 18 14 32 32 32h43
c6 0 10 -5 10 -11s-4 -11 -10 -11h-43c-6 0 -11 -4 -11 -10v-64c0 -6 -4 -11 -10 -11zM480 320h-64c-18 0 -32 14 -32 32s14 32 32 32h64c18 0 32 -14 32 -32s-14 -32 -32 -32zM416 363c-6 0 -11 -5 -11 -11s5 -11 11 -11h64c6 0 11 5 11 11s-5 11 -11 11h-64zM490 48
c-3 0 -6 1 -9 2l-112 47c-5 2 -8 9 -6 14s9 8 14 6l113 -47l1 1v136l-6 10l5 -9l-113 -47c-5 -2 -12 1 -14 6s1 12 6 14l112 46c7 3 15 2 21 -2s10 -11 10 -18v-136c0 -7 -4 -15 -10 -19c-4 -2 -8 -4 -12 -4z" />
    <glyph glyph-name="uniFB95" unicode="&#x6af;" horiz-adv-x="391" arabic-form="medial" 
d="M90 -3c-20 0 -39 8 -53 22l-15 15c-29 29 -29 76 0 105l98 98c14 14 33 22 53 22s38 -8 52 -22l16 -15c4 -4 4 -11 0 -15s-12 -4 -16 0l-15 15c-10 10 -23 16 -37 16s-28 -6 -38 -16l-98 -98c-21 -21 -21 -54 0 -75l15 -15c10 -10 24 -16 38 -16s27 6 37 16l68 67
c4 4 11 4 15 0s4 -11 0 -15l-67 -67c-14 -14 -33 -22 -53 -22zM218 125c-20 0 -39 8 -53 22c-4 4 -4 11 0 15s11 4 15 0c10 -10 24 -16 38 -16s28 6 38 16l98 98c21 21 21 54 0 75l-15 15c-21 21 -55 21 -76 0l-68 -67c-4 -4 -11 -4 -15 0s-4 11 0 15l68 67
c29 29 77 29 106 0l15 -15c29 -29 29 -76 0 -105l-98 -98c-14 -14 -33 -22 -53 -22z" />
    <glyph glyph-name="uniFB83" unicode="&#x68d;" horiz-adv-x="427" arabic-form="final" 
d="M213 -64h-3c-187 52 -209 167 -210 172v2v316c0 4 3 8 7 10s8 1 11 -2c24 -24 56 -37 89 -37c38 0 74 17 98 47c4 5 13 5 17 0c24 -30 60 -47 98 -47c33 0 64 13 88 37c3 3 8 4 12 2s7 -6 7 -10v-316c0 -1 -1 -1 -1 -2c-1 -5 -23 -120 -210 -172h-3zM21 111
c1 -5 8 -29 32 -58c24 -30 71 -70 160 -95c89 25 137 65 161 95c24 29 30 53 31 58v292c-25 -18 -54 -27 -85 -27c-41 0 -79 16 -107 45c-28 -29 -65 -45 -106 -45c-31 0 -61 9 -86 27v-292zM256 75h-85v85h-86v85h86v86h85v-86h85v-85h-85v-85zM192 96h43v85h85v43h-85v85
h-43v-85h-85v-43h85v-85z" />
    <glyph glyph-name="uniFBDD" unicode="&#x677;" arabic-form="isolated" 
d="M427 448c47 0 85 -38 85 -85v-342c0 -47 -38 -85 -85 -85h-342c-47 0 -85 38 -85 85v342c0 47 38 85 85 85h342zM406 229v0c17 96 -114 75 -128 -8c35 21 54 -8 36 -41s-35 -55 -43 -55s-14 22 -24 61c-10 40 -10 112 -52 104c-39 -8 -91 -70 -91 -70l12 -16s26 20 34 10
s41 -131 52 -153c9 -20 35 -45 64 -27s123 99 140 195z" />
    <glyph glyph-name="uniFBDE" unicode="&#x6cb;" arabic-form="isolated" 
d="M256 448c141 0 256 -115 256 -256s-115 -256 -256 -256s-256 115 -256 256s115 256 256 256zM406 229v0c17 96 -114 75 -128 -8c35 21 54 -8 36 -41s-35 -55 -43 -55s-14 22 -24 61c-10 40 -10 112 -52 104c-39 -8 -91 -70 -91 -70l12 -16s26 20 34 10s41 -131 52 -153
c9 -20 35 -45 64 -27s123 99 140 195z" />
    <glyph glyph-name="uniFBEA" unicode="&#xfbea;" arabic-form="isolated" 
d="M256 -64c-141 0 -256 115 -256 256s115 256 256 256s256 -115 256 -256s-115 -256 -256 -256zM256 400c-115 0 -208 -93 -208 -208s93 -208 208 -208s208 93 208 208s-93 208 -208 208zM271 92c70 14 125 46 145 89c-11 -84 -81 -149 -166 -149c-60 0 -111 32 -141 80
c35 -28 97 -33 162 -20v0zM320 272c0 27 14 48 32 48s32 -21 32 -48s-14 -48 -32 -48s-32 21 -32 48zM176 262c-21 0 -38 -7 -45 -18c-2 3 -3 16 -3 19c0 16 21 28 48 28s48 -12 48 -28c0 -3 -1 -16 -3 -19c-7 11 -24 18 -45 18z" />
    <glyph glyph-name="uniFB6A" unicode="&#x6a4;" arabic-form="isolated" 
d="M267 128c-3 0 -6 1 -8 3l-171 171c-3 3 -4 7 -2 11s6 7 10 7h341c4 0 8 -3 10 -7s1 -8 -2 -11l-171 -171c-2 -2 -4 -3 -7 -3zM122 299l145 -145l145 145h-290zM267 -64c-6 0 -11 5 -11 11v192c0 6 5 10 11 10s10 -4 10 -10v-192c0 -6 -4 -11 -10 -11zM352 -64h-171
c-6 0 -10 5 -10 11s4 10 10 10h171c6 0 11 -4 11 -10s-5 -11 -11 -11zM152 302l-55 56c-10 10 -24 15 -38 15h-59v22h59c20 0 39 -8 53 -22l56 -56zM437 256c-14 0 -27 4 -39 11l12 18c8 -5 17 -8 27 -8c29 0 54 25 54 54s-25 53 -54 53s-53 -24 -53 -53c0 -6 1 -12 3 -18
l-20 -7c-3 8 -4 16 -4 25c0 41 33 74 74 74s75 -33 75 -74s-34 -75 -75 -75z" />
    <glyph glyph-name="uniFB80" unicode="&#x687;" horiz-adv-x="406" arabic-form="initial" 
d="M297 331h-188c-16 0 -32 6 -42 19l-65 81c-3 3 -3 7 -1 11s6 6 10 6h384c4 0 7 -2 9 -6s2 -8 -1 -11l-65 -81c-10 -13 -25 -19 -41 -19zM33 427l51 -63c6 -8 15 -12 25 -12h188c10 0 19 4 25 12l50 63h-339zM395 -64v0h-384c-4 0 -8 2 -10 6s-1 8 1 11l53 75c2 3 6 4 9 4
h277c3 0 7 -1 9 -4l52 -74c2 -2 4 -4 4 -7c0 -6 -5 -11 -11 -11zM31 -43h343l-38 54h-267zM192 11v341h21v-341h-21zM0 -64v512h21v-512h-21zM384 -64v512h21v-512h-21z" />
    <glyph glyph-name="uniFB81" unicode="&#x687;" horiz-adv-x="256" arabic-form="medial" 
d="M245 256h-234c-6 0 -11 5 -11 11s5 10 11 10h234c6 0 11 -4 11 -10s-5 -11 -11 -11zM96 192h-43c-6 0 -10 5 -10 11s4 10 10 10h43c6 0 11 -4 11 -10s-5 -11 -11 -11zM96 149h-43c-6 0 -10 5 -10 11s4 11 10 11h43c6 0 11 -5 11 -11s-5 -11 -11 -11zM96 107h-43
c-6 0 -10 4 -10 10s4 11 10 11h43c6 0 11 -5 11 -11s-5 -10 -11 -10zM149 -64h-42c-6 0 -11 5 -11 11v39c-32 15 -53 49 -53 89v277c0 53 38 96 85 96s85 -43 85 -96v-277c0 -40 -21 -74 -53 -89v-39c0 -6 -5 -11 -11 -11zM117 -43h22v36c0 5 3 9 7 10c27 9 46 39 46 72v277
c0 41 -29 75 -64 75s-64 -34 -64 -75v-277c0 -33 19 -63 46 -72c4 -1 7 -5 7 -10v-36z" />
    <glyph glyph-name="uniFB99" unicode="&#x6b3;" horiz-adv-x="448" arabic-form="medial" 
d="M11 -21c-3 0 -6 1 -8 3c-4 4 -4 11 0 15l287 286c4 4 11 4 15 0s4 -11 0 -15l-287 -286c-2 -2 -4 -3 -7 -3zM295 409l17 -68l-78 -36l84 -10l10 -84l36 78l66 -16l-50 50l39 72l-73 -38zM295 427v0c5 0 8 -2 12 -5l43 -43l60 33c3 1 6 2 9 2c5 0 10 -3 13 -6
c6 -6 7 -14 3 -21l-32 -61l40 -40c6 -6 7 -15 3 -22c-3 -6 -10 -9 -16 -9c-1 0 -3 1 -4 1l-51 12l-30 -65c-3 -6 -10 -10 -17 -10h-3c-8 1 -14 8 -15 16l-8 69l-70 9c-8 1 -15 7 -16 15s4 16 11 19l64 30l-14 53c-2 8 2 17 9 21c3 2 6 2 9 2z" />
    <glyph glyph-name="uniFBEB" unicode="&#xfbeb;" arabic-form="final" 
d="M256 448c141 0 256 -115 256 -256s-115 -256 -256 -256s-256 115 -256 256s115 256 256 256zM352 320c-18 0 -32 -21 -32 -48s14 -48 32 -48s32 21 32 48s-14 48 -32 48zM176 292v0c-30 0 -51 -12 -51 -29c0 -4 -2 -21 0 -24c7 12 27 21 51 21s44 -9 51 -21
c2 3 0 20 0 24c0 17 -21 29 -51 29zM250 32v0c85 0 155 65 166 149c-20 -43 -75 -75 -145 -89c-65 -13 -127 -8 -162 20c30 -48 81 -80 141 -80z" />
    <glyph glyph-name="uniFB9E" unicode="&#x6ba;" horiz-adv-x="363" arabic-form="isolated" 
d="M181 43c-76 0 -138 62 -138 138v128c0 76 62 139 138 139s139 -63 139 -139v-128c0 -76 -63 -138 -139 -138zM181 427c-65 0 -117 -53 -117 -118v-128c0 -65 52 -117 117 -117s118 52 118 117v128c0 65 -53 118 -118 118zM181 0c-102 0 -181 79 -181 181v43
c0 6 5 11 11 11s10 -5 10 -11v-43c0 -90 70 -160 160 -160s160 70 160 160v43c0 6 5 11 11 11s11 -5 11 -11v-43c0 -102 -80 -181 -182 -181zM171 -64v75h21v-75h-21zM181 363c-6 0 -10 4 -10 10v64c0 6 4 11 10 11s11 -5 11 -11v-64c0 -6 -5 -10 -11 -10zM224 363
c-6 0 -11 4 -11 10v57c0 6 5 11 11 11s11 -5 11 -11v-57c0 -6 -5 -10 -11 -10zM139 363c-6 0 -11 4 -11 10v57c0 6 5 11 11 11s10 -5 10 -11v-57c0 -6 -4 -10 -10 -10zM11 171v21h341v-21h-341zM139 299h-86c-6 0 -10 4 -10 10s4 11 10 11h86c6 0 10 -5 10 -11
s-4 -10 -10 -10zM139 256h-86c-6 0 -10 5 -10 11s4 10 10 10h86c6 0 10 -4 10 -10s-4 -11 -10 -11zM309 299h-85c-6 0 -11 4 -11 10s5 11 11 11h85c6 0 11 -5 11 -11s-5 -10 -11 -10zM309 256h-85c-6 0 -11 5 -11 11s5 10 11 10h85c6 0 11 -4 11 -10s-5 -11 -11 -11z
M139 213h-86c-6 0 -10 5 -10 11s4 11 10 11h86c6 0 10 -5 10 -11s-4 -11 -10 -11zM309 213h-85c-6 0 -11 5 -11 11s5 11 11 11h85c6 0 11 -5 11 -11s-5 -11 -11 -11z" />
    <glyph glyph-name="uniFB64" unicode="&#x67f;" arabic-form="initial" 
d="M352 235h-171c-29 0 -53 24 -53 53v139h277v-139c0 -29 -24 -53 -53 -53zM149 405v-117c0 -18 14 -32 32 -32h171c18 0 32 14 32 32v117h-235zM363 -43h-192v235h192v-235zM192 -21h149v192h-149v-192zM96 21c-29 0 -53 25 -53 54s24 53 53 53s53 -24 53 -53
s-24 -54 -53 -54zM96 107c-18 0 -32 -14 -32 -32s14 -32 32 -32s32 14 32 32s-14 32 -32 32zM309 32c-4 0 -9 3 -10 7l-19 57h-27l-19 -57c-2 -6 -7 -8 -13 -6s-9 7 -7 13l21 64c1 4 5 7 10 7h43c5 0 9 -3 10 -7l21 -64c2 -6 0 -11 -6 -13c-1 0 -3 -1 -4 -1zM171 277v107h21
v-107h-21zM213 277v107h22v-107h-22zM256 277v107h21v-107h-21zM299 277v107h21v-107h-21zM341 277v107h22v-107h-22zM192 181v64h21v-64h-21zM320 181v64h21v-64h-21zM469 43h-85v64h85v-64zM405 64h43v21h-43v-21zM437 -21h-85v21h85c29 0 54 24 54 53v43
c0 29 -25 53 -54 53h-85v22h85c41 0 75 -34 75 -75v-43c0 -41 -34 -74 -75 -74zM181 -21h-106c-41 0 -75 33 -75 74v43c0 41 34 75 75 75h106v-22h-106c-29 0 -54 -24 -54 -53v-43c0 -29 25 -53 54 -53h106v-21z" />
    <glyph glyph-name="uniFB6E" unicode="&#x6a6;" arabic-form="isolated" 
d="M373 85h-256c-18 0 -32 14 -32 32v256c0 41 34 75 75 75h171c41 0 74 -34 74 -75v-256c0 -18 -14 -32 -32 -32zM160 427c-29 0 -53 -25 -53 -54v-256c0 -6 4 -10 10 -10h256c6 0 11 4 11 10v256c0 29 -24 54 -53 54h-171zM331 213h-171c-18 0 -32 14 -32 32v128
c0 18 14 32 32 32h171c18 0 32 -14 32 -32v-128c0 -18 -14 -32 -32 -32zM160 384c-6 0 -11 -5 -11 -11v-128c0 -6 5 -10 11 -10h171c6 0 10 4 10 10v128c0 6 -4 11 -10 11h-171zM331 171h-64c-6 0 -11 4 -11 10s5 11 11 11h64c6 0 10 -5 10 -11s-4 -10 -10 -10zM501 -64
h-490c-6 0 -11 5 -11 11v42c0 3 1 6 3 8l64 64c2 2 5 3 8 3h362c3 0 6 -1 8 -3l64 -64c2 -2 3 -5 3 -8v-42c0 -6 -5 -11 -11 -11zM21 -43h470v28l-58 58h-354l-58 -58v-28zM501 -21h-490c-6 0 -11 4 -11 10s5 11 11 11h490c6 0 11 -5 11 -11s-5 -10 -11 -10zM459 43h-22v21
h22c18 0 32 14 32 32s-14 32 -32 32h-64v21h64c29 0 53 -24 53 -53s-24 -53 -53 -53zM128 32v0c6 0 11 -5 11 -11s-5 -10 -11 -10s-11 4 -11 10s5 11 11 11zM192 32v0c6 0 11 -5 11 -11s-5 -10 -11 -10s-11 4 -11 10s5 11 11 11zM256 32v0c6 0 11 -5 11 -11s-5 -10 -11 -10
s-11 4 -11 10s5 11 11 11zM320 32v0c6 0 11 -5 11 -11s-5 -10 -11 -10s-11 4 -11 10s5 11 11 11zM384 32v0c6 0 11 -5 11 -11s-5 -10 -11 -10s-11 4 -11 10s5 11 11 11z" />
    <glyph glyph-name="uniFB5E" unicode="&#x67a;" arabic-form="isolated" 
d="M459 -21h-406c-29 0 -53 24 -53 53v299c0 29 24 53 53 53h406c29 0 53 -24 53 -53v-299c0 -29 -24 -53 -53 -53zM53 363c-18 0 -32 -14 -32 -32v-299c0 -18 14 -32 32 -32h406c18 0 32 14 32 32v299c0 18 -14 32 -32 32h-406zM501 256h-490c-6 0 -11 5 -11 11s5 10 11 10
h490c6 0 11 -4 11 -10s-5 -11 -11 -11zM64 320c0 14 7 21 21 21s22 -7 22 -21s-8 -21 -22 -21s-21 7 -21 21zM128 320c0 14 7 21 21 21s22 -7 22 -21s-8 -21 -22 -21s-21 7 -21 21zM192 320c0 14 7 21 21 21s22 -7 22 -21s-8 -21 -22 -21s-21 7 -21 21z" />
    <glyph glyph-name="uniFBF1" unicode="&#xfbf1;" arabic-form="final" 
d="M427 448c47 0 85 -38 85 -85v-342c0 -47 -38 -85 -85 -85h-342c-47 0 -85 38 -85 85v342c0 47 38 85 85 85h342zM156 115c8 0 12 5 15 10c0 0 58 103 60 107l-38 66c-3 5 -7 11 -16 11h-55c-3 0 -7 -2 -8 -4s-2 -5 0 -8l38 -65v-1l-59 -104c-2 -3 -1 -7 0 -9s4 -3 7 -3
h56zM419 373v0c2 3 1 6 0 8s-4 4 -7 4h-57c-8 0 -11 -6 -14 -11c0 0 -120 -212 -124 -219l79 -145c3 -5 6 -11 15 -11h56c3 0 6 2 7 4s2 5 0 8l-78 144v0z" />
    <glyph glyph-name="uniFBE8" unicode="&#x649;" arabic-form="initial" 
d="M206 192v0c6 -3 12 -7 18 -11c-8 -28 -36 -122 -47 -161c-24 16 -54 31 -94 31c-25 0 -52 -6 -83 -17l45 156c5 2 9 3 13 5c16 6 42 13 70 15c3 0 6 1 9 1c22 0 45 -7 69 -19zM264 152v0c21 -15 55 -30 103 -30c26 0 55 5 84 14l-44 -151c-36 -15 -67 -22 -95 -22
c-35 0 -80 24 -93 32zM146 264v0v0c-26 0 -54 -7 -86 -19l45 156c32 13 60 20 86 20c14 0 27 -2 39 -5c19 -5 44 -18 54 -24l-47 -159c-24 15 -52 31 -91 31zM512 349v0l-44 -153l-2 -1v-1c-30 -14 -60 -20 -88 -20c-35 0 -68 10 -99 30l46 159c22 -15 55 -31 101 -31
c27 0 57 6 86 17z" />
    <glyph glyph-name="uniFBAA" unicode="&#x6be;" horiz-adv-x="375" arabic-form="isolated" 
d="M365 -64c-3 0 -7 1 -9 4l-58 75l-2 6v98c0 26 -14 37 -44 62c-5 4 -10 9 -16 14c-4 4 -6 11 -2 15s11 5 15 1c6 -5 12 -10 17 -14c31 -26 51 -42 51 -78v-94l56 -72c4 -5 3 -11 -2 -15c-2 -2 -4 -2 -6 -2zM244 -64c-3 0 -7 1 -9 4l-11 16c-9 13 -14 27 -14 43v30l-45 66
c-12 13 -12 33 1 46s34 13 47 0l58 -59c4 -4 4 -11 0 -15s-11 -4 -15 0l-58 59c-5 5 -12 5 -17 0s-5 -12 0 -17l1 -2l48 -69l2 -6v-33c0 -11 3 -22 10 -31l11 -15c3 -5 2 -12 -3 -15c-2 -1 -4 -2 -6 -2zM221 -21h-160c-24 0 -43 18 -43 42v235c0 24 19 43 43 43h149
c24 0 43 -19 43 -43v-160h-21v160c0 12 -10 21 -22 21h-149c-12 0 -21 -9 -21 -21v-235c0 -12 9 -21 21 -21h160v-21zM196 316c-16 16 -37 25 -60 25s-45 -9 -61 -25l-15 15c20 20 48 32 76 32s55 -12 75 -32zM226 347c-50 50 -131 50 -181 0l-15 15c58 58 153 58 211 0z
M256 377c-67 67 -174 67 -241 0l-15 15c75 75 197 75 272 0zM93 235v0c6 0 11 -5 11 -11s-5 -11 -11 -11s-11 5 -11 11s5 11 11 11zM136 235v0c6 0 10 -5 10 -11s-4 -11 -10 -11s-11 5 -11 11s5 11 11 11zM178 235v0c6 0 11 -5 11 -11s-5 -11 -11 -11s-10 5 -10 11
s4 11 10 11zM93 192v0c6 0 11 -5 11 -11s-5 -10 -11 -10s-11 4 -11 10s5 11 11 11zM136 192v0c6 0 10 -5 10 -11s-4 -10 -10 -10s-11 4 -11 10s5 11 11 11zM93 149v0c6 0 11 -4 11 -10s-5 -11 -11 -11s-11 5 -11 11s5 10 11 10zM136 149v0c6 0 10 -4 10 -10s-4 -11 -10 -11
s-11 5 -11 11s5 10 11 10zM93 107v0c6 0 11 -5 11 -11s-5 -11 -11 -11s-11 5 -11 11s5 11 11 11zM136 107v0c6 0 10 -5 10 -11s-4 -11 -10 -11s-11 5 -11 11s5 11 11 11zM93 64v0c6 0 11 -5 11 -11s-5 -10 -11 -10s-11 4 -11 10s5 11 11 11zM136 64v0c6 0 10 -5 10 -11
s-4 -10 -10 -10s-11 4 -11 10s5 11 11 11zM178 192v0c6 0 11 -5 11 -11s-5 -10 -11 -10s-10 4 -10 10s4 11 10 11z" />
    <glyph glyph-name="uniFBF0" unicode="&#xfbf0;" arabic-form="isolated" 
d="M501 39v0c13 -11 14 -31 2 -43l-51 -51c-12 -12 -32 -11 -43 2l-197 230c-20 -11 -44 -17 -68 -17c-80 0 -144 64 -144 144c0 15 2 29 6 42l83 -83c12 -12 34 -12 46 0l50 50c12 12 12 34 0 46l-83 83c13 4 27 6 42 6c80 0 144 -64 144 -144c0 -24 -6 -48 -17 -68z" />
    <glyph glyph-name="uniFB52" unicode="&#x67b;" horiz-adv-x="384" arabic-form="isolated" 
d="M0 384h384v-384h-384v384z" />
    <glyph glyph-name="uniFB75" unicode="&#x684;" horiz-adv-x="427" arabic-form="medial" 
d="M213 235c-120 0 -213 42 -213 96s93 96 213 96s214 -42 214 -96s-94 -96 -214 -96zM213 405c-91 0 -192 -30 -192 -74s101 -75 192 -75s192 31 192 75s-101 74 -192 74zM213 149c-120 0 -213 42 -213 96v86c0 6 5 10 11 10s10 -4 10 -10v-86c0 -44 101 -74 192 -74
s192 30 192 74v86c0 6 5 10 11 10s11 -4 11 -10v-86c0 -54 -94 -96 -214 -96zM213 53c-120 0 -213 42 -213 96v96c0 6 5 11 11 11s10 -5 10 -11v-96c0 -44 101 -74 192 -74s192 30 192 74v96c0 6 5 11 11 11s11 -5 11 -11v-96c0 -54 -94 -96 -214 -96zM213 -43
c-120 0 -213 42 -213 96v96c0 6 5 11 11 11s10 -5 10 -11v-96c0 -44 101 -74 192 -74s192 30 192 74v96c0 6 5 11 11 11s11 -5 11 -11v-96c0 -54 -94 -96 -214 -96z" />
    <glyph glyph-name="uniFB54" unicode="&#x67b;" arabic-form="initial" 
d="M96 0c-53 0 -96 43 -96 96h512c0 -53 -43 -96 -96 -96h-320zM416 64v-32h32v32h-32zM480 384l32 -256h-512l32 256h448z" />
    <glyph glyph-name="uniFB98" unicode="&#x6b3;" horiz-adv-x="427" arabic-form="initial" 
d="M395 -64h-363c-6 0 -11 5 -11 11v64c0 6 5 10 11 10h363c6 0 10 -4 10 -10v-64c0 -6 -4 -11 -10 -11zM43 -43h341v43h-341v-43zM395 0h-363c-18 0 -32 14 -32 32v352c0 35 29 64 64 64h299c35 0 64 -29 64 -64v-352c0 -18 -14 -32 -32 -32zM64 427c-24 0 -43 -19 -43 -43
v-352c0 -6 5 -11 11 -11h363c6 0 10 5 10 11v352c0 24 -18 43 -42 43h-299zM349 128h-271c-19 0 -35 13 -35 30v217c0 17 16 30 35 30h271c19 0 35 -13 35 -30v-217c0 -17 -16 -30 -35 -30zM78 384c-8 0 -14 -5 -14 -9v-217c0 -4 6 -9 14 -9h271c8 0 14 5 14 9v217
c0 4 -6 9 -14 9h-271zM107 64h-43c-6 0 -11 5 -11 11s5 10 11 10h43c6 0 10 -4 10 -10s-4 -11 -10 -11zM363 64h-107c-6 0 -11 5 -11 11s5 10 11 10h107c6 0 10 -4 10 -10s-4 -11 -10 -11zM139 277c-6 0 -11 5 -11 11v43c0 6 5 10 11 10s10 -4 10 -10v-43
c0 -6 -4 -11 -10 -11zM288 277c-6 0 -11 5 -11 11v43c0 6 5 10 11 10s11 -4 11 -10v-43c0 -6 -5 -11 -11 -11zM224 235h-21c-6 0 -11 4 -11 10s5 11 11 11h10v53c0 6 5 11 11 11s11 -5 11 -11v-64c0 -6 -5 -10 -11 -10zM245 171h-64c-18 0 -32 14 -32 32c0 6 5 10 11 10
s11 -4 11 -10s4 -11 10 -11h64c6 0 11 5 11 11s5 10 11 10s10 -4 10 -10c0 -18 -14 -32 -32 -32z" />
    <glyph glyph-name="uniFB8B" unicode="&#x698;" arabic-form="final" 
d="M427 171h-342v213h342v-213zM107 192h298v171h-298v-171zM355 21h-198l16 64h166zM184 43h144l-6 21h-132zM469 -64h-426c-24 0 -43 19 -43 43v13l43 148v244c0 24 18 43 42 43h342c24 0 42 -19 42 -43v-233l43 -162v-10c0 -24 -19 -43 -43 -43zM21 -12v-9
c0 -12 10 -22 22 -22h426c12 0 22 10 22 22v9l-43 161v235c0 12 -9 21 -21 21h-342c-12 0 -21 -9 -21 -21v-248zM53 128v21h406v-21h-406zM11 -21v21h490v-21h-490z" />
    <glyph glyph-name="uniFBDC" unicode="&#x6c8;" arabic-form="final" 
d="M0 294v0s87 104 153 117c70 14 70 -108 87 -176c16 -65 28 -102 42 -102s41 36 71 92s-1 105 -59 70c23 140 244 174 215 13s-188 -298 -236 -329s-92 13 -108 46c-18 38 -73 241 -87 258s-57 -16 -57 -16z" />
    <glyph glyph-name="uniFB7C" unicode="&#x686;" horiz-adv-x="299" arabic-form="initial" 
d="M224 -64c-6 0 -11 5 -11 11v490c0 6 5 11 11 11s11 -5 11 -11v-490c0 -6 -5 -11 -11 -11zM288 117h-64c-6 0 -11 5 -11 11s5 11 11 11h53c-1 179 -38 284 -53 288c-6 0 -11 4 -11 10s5 11 11 11c45 0 75 -165 75 -320c0 -6 -5 -11 -11 -11zM75 256c-41 0 -75 34 -75 75
v106c0 6 5 11 11 11s10 -5 10 -11v-106c0 -29 25 -54 54 -54s53 25 53 54v106c0 6 5 11 11 11s10 -5 10 -11v-106c0 -41 -33 -75 -74 -75zM75 -64c-6 0 -11 5 -11 11v490c0 6 5 11 11 11s10 -5 10 -11v-490c0 -6 -4 -11 -10 -11z" />
    <glyph glyph-name="uniFBF7" unicode="&#xfbf7;" arabic-form="final" 
d="M496 12c20 -18 22 -46 4 -64s-46 -16 -64 4l-103 121c-11 13 -16 26 -16 37c-34 -29 -77 -46 -125 -46c-106 0 -192 86 -192 192s86 192 192 192s192 -86 192 -192c0 -48 -17 -91 -46 -125c11 0 24 -5 37 -16zM192 128c71 0 128 57 128 128s-57 128 -128 128
s-128 -57 -128 -128s57 -128 128 -128zM224 352v-64h64v-64h-64v-64h-64v64h-64v64h64v64h64z" />
    <glyph glyph-name="uniFB90" unicode="&#x6a9;" horiz-adv-x="469" arabic-form="initial" 
d="M245 -64h-192c-29 0 -53 24 -53 53v256h21v-256c0 -18 14 -32 32 -32h192c18 0 32 14 32 32v256h22v-256c0 -29 -25 -53 -54 -53zM267 213h-235c-18 0 -32 14 -32 32s14 32 32 32h235c18 0 32 -14 32 -32s-14 -32 -32 -32zM32 256c-6 0 -11 -5 -11 -11s5 -10 11 -10h235
c6 0 10 4 10 10s-4 11 -10 11h-235zM149 -21c-59 0 -106 47 -106 106s47 107 106 107s107 -48 107 -107s-48 -106 -107 -106zM149 171c-47 0 -85 -39 -85 -86s38 -85 85 -85s86 38 86 85s-39 86 -86 86zM149 21c-35 0 -64 29 -64 64s29 64 64 64s64 -29 64 -64
s-29 -64 -64 -64zM149 128c-24 0 -42 -19 -42 -43s18 -42 42 -42s43 18 43 42s-19 43 -43 43zM224 363h-85v64h85v-64zM160 384h43v21h-43v-21zM107 341c-29 0 -54 25 -54 54s25 53 54 53s53 -24 53 -53s-24 -54 -53 -54zM107 427c-18 0 -32 -14 -32 -32s14 -32 32 -32
s32 14 32 32s-14 32 -32 32zM405 -64c-35 0 -64 29 -64 64v171c0 12 -9 21 -21 21h-32v21h32c24 0 43 -18 43 -42v-171c0 -24 18 -43 42 -43s43 19 43 43v331c0 29 -24 53 -53 53h-182v21h182c41 0 74 -33 74 -74v-331c0 -35 -29 -64 -64 -64zM107 405v0c6 0 10 -4 10 -10
s-4 -11 -10 -11s-11 5 -11 11s5 10 11 10z" />
    <glyph glyph-name="uniFB5B" unicode="&#x680;" horiz-adv-x="480" arabic-form="final" 
d="M171 -64c-94 0 -171 77 -171 171c0 74 48 139 117 162v30c0 6 5 10 11 10h85c6 0 11 -4 11 -10v-30c69 -23 117 -88 117 -162c0 -94 -76 -171 -170 -171zM139 288v-27c0 -5 -3 -10 -8 -11c-64 -18 -110 -76 -110 -143c0 -82 68 -150 150 -150s149 68 149 150
c0 67 -46 125 -110 143c-5 1 -7 6 -7 11v27h-64zM320 277c-29 0 -53 25 -53 54c0 24 -19 42 -43 42s-43 -18 -43 -42v-32c0 -6 -4 -11 -10 -11s-11 5 -11 11v32c0 35 29 64 64 64s64 -29 64 -64c0 -18 14 -32 32 -32s32 14 32 32s14 32 32 32c6 0 11 -5 11 -11
s-5 -11 -11 -11s-11 -4 -11 -10c0 -29 -24 -54 -53 -54zM384 384c-6 0 -11 5 -11 11v42c0 6 5 11 11 11s11 -5 11 -11v-42c0 -6 -5 -11 -11 -11zM414 371c-3 0 -5 2 -7 4c-4 4 -4 11 0 15l30 30c4 4 11 4 15 0s4 -11 0 -15l-30 -30c-2 -2 -5 -4 -8 -4zM354 371
c-3 0 -6 2 -8 4l-30 30c-4 4 -4 11 0 15s11 4 15 0l30 -30c4 -4 4 -11 0 -15c-2 -2 -4 -4 -7 -4zM469 341h-42c-6 0 -11 5 -11 11s5 11 11 11h42c6 0 11 -5 11 -11s-5 -11 -11 -11zM444 281c-3 0 -5 1 -7 3l-30 30c-4 4 -4 11 0 15s11 4 15 0l30 -30c4 -4 4 -11 0 -15
c-2 -2 -5 -3 -8 -3zM74 29c-3 0 -6 1 -8 4c-20 28 -27 62 -21 96s25 63 53 83c5 3 11 2 14 -3s3 -12 -2 -15c-48 -34 -61 -100 -27 -148c3 -5 3 -12 -2 -15c-2 -1 -5 -2 -7 -2z" />
    <glyph glyph-name="uniFB59" unicode="&#x67e;" horiz-adv-x="384" arabic-form="medial" 
d="M267 192c-6 0 -11 5 -11 11v213c0 6 5 11 11 11c65 0 117 -53 117 -118s-52 -117 -117 -117zM277 405v-191c48 5 86 46 86 95s-38 91 -86 96zM267 405c-6 0 -11 5 -11 11v21c0 6 5 11 11 11s10 -5 10 -11v-21c0 -6 -4 -11 -10 -11zM160 149h-43c-6 0 -10 5 -10 11
s4 11 10 11h43c6 0 11 -5 11 -11s-5 -11 -11 -11zM224 235h-192c-6 0 -11 4 -11 10s5 11 11 11h192c6 0 11 -5 11 -11s-5 -10 -11 -10zM64 -64h-2c-6 1 -10 6 -9 12l22 140c1 6 6 10 12 9s10 -6 9 -12l-21 -140c-1 -5 -6 -9 -11 -9zM203 -64c-24 0 -43 19 -43 43
s19 42 43 42s42 -18 42 -42s-18 -43 -42 -43zM203 0c-12 0 -22 -9 -22 -21s10 -22 22 -22s21 10 21 22s-9 21 -21 21zM195 -1c-6 0 -10 4 -10 10l-4 77c0 6 5 11 11 11s11 -4 11 -10l3 -77c0 -6 -4 -11 -10 -11h-1zM77 21v22h117v-22h-117zM139 64c-76 0 -139 63 -139 139
c0 6 5 10 11 10h256c6 0 10 -4 10 -10c0 -76 -62 -139 -138 -139zM22 192c5 -60 56 -107 117 -107s112 47 117 107h-234z" />
    <glyph glyph-name="uniFBD4" unicode="&#x6ad;" arabic-form="final" 
d="M0 0h512v-32h-512v32zM512 64v-32h-512v32l64 128h128v-64h128v64h128zM112 288l144 144l144 -144h-112v-128h-64v128h-112z" />
    <glyph glyph-name="uniFBE4" unicode="&#x6d0;" horiz-adv-x="224" arabic-form="isolated" 
d="M201 409c13 13 23 8 23 -10v-414c0 -18 -10 -23 -23 -10l-121 121h-80v192h80l121 121v0z" />
    <glyph glyph-name="uniFB7E" unicode="&#x687;" arabic-form="isolated" 
d="M395 -64h-395v469h309c6 0 11 -4 11 -10s-5 -11 -11 -11h-288v-427h352v235c0 6 5 11 11 11s11 -5 11 -11v-256zM235 267zM231 156c-3 0 -6 1 -8 3c-3 3 -4 9 -2 13l30 60c1 1 1 2 2 3l204 203c6 6 14 10 22 10c13 0 26 -9 31 -21s1 -25 -8 -34l-203 -204
c-1 -1 -2 -1 -3 -2l-60 -30c-2 -1 -3 -1 -5 -1zM270 221l-15 -30l30 15l202 202c3 3 5 7 3 11s-7 8 -11 8c-3 0 -5 -2 -7 -4zM465 360c-3 0 -6 1 -8 3l-30 30c-4 4 -4 11 0 15s11 4 15 0l30 -30c4 -4 4 -11 0 -15c-2 -2 -4 -3 -7 -3z" />
    <glyph glyph-name="uniFBAF" unicode="&#x6d2;" arabic-form="final" 
d="M469 -43h-426c-24 0 -43 19 -43 43v277c0 24 19 43 43 43h426c24 0 43 -19 43 -43v-277c0 -24 -19 -43 -43 -43zM43 299c-12 0 -22 -10 -22 -22v-277c0 -12 10 -21 22 -21h426c12 0 22 9 22 21v277c0 12 -10 22 -22 22h-426zM341 352h-21v21c0 6 -5 11 -11 11h-106
c-6 0 -11 -5 -11 -11v-21h-21v21c0 18 14 32 32 32h106c18 0 32 -14 32 -32v-21zM427 213h-352c-6 0 -11 5 -11 11s5 11 11 11h352c6 0 10 -5 10 -11s-4 -11 -10 -11zM427 128h-352c-6 0 -11 5 -11 11s5 10 11 10h352c6 0 10 -4 10 -10s-4 -11 -10 -11zM427 43h-352
c-6 0 -11 4 -11 10s5 11 11 11h352c6 0 10 -5 10 -11s-4 -10 -10 -10zM171 309v43h21v-43h-21zM320 309v43h21v-43h-21zM181 341v22h150v-22h-150z" />
    <glyph glyph-name="uniFB67" unicode="&#x679;" arabic-form="final" 
d="M405 107h-298c-59 0 -107 47 -107 106c0 6 5 11 11 11s10 -5 10 -11c0 -47 39 -85 86 -85h298c47 0 86 38 86 85c0 6 4 11 10 11s11 -5 11 -11c0 -59 -48 -106 -107 -106zM416 171h-320c-6 0 -11 4 -11 10s5 11 11 11h320c6 0 11 -5 11 -11s-5 -10 -11 -10zM427 118h-22
v159c0 82 -67 150 -149 150s-149 -68 -149 -150v-159h-22v159c0 94 77 171 171 171s171 -77 171 -171v-159zM288 -21l21 -43h-106l21 43h64z" />
    <glyph glyph-name="uniFB68" unicode="&#x679;" horiz-adv-x="469" arabic-form="initial" 
d="M363 -64h-256c-6 0 -11 4 -11 10l-21 268c-42 5 -75 41 -75 85c0 47 40 87 86 87c10 0 19 -2 28 -6c15 41 62 68 121 68c56 0 94 -23 118 -69c9 4 21 7 31 7c46 0 85 -40 85 -87c0 -44 -33 -80 -75 -85l-21 -268c0 -6 -4 -10 -10 -10zM117 -43h236l20 268c0 6 5 10 11 10
c35 0 64 29 64 64c0 39 -34 65 -64 65c-10 0 -20 -2 -29 -8c-3 -2 -6 -3 -9 -2s-6 3 -7 6c-20 45 -53 67 -104 67c-55 0 -97 -26 -104 -64c-1 -4 -3 -7 -6 -8s-7 -1 -10 1c-9 6 -19 8 -29 8c-30 0 -65 -26 -65 -65c0 -35 29 -64 64 -64c6 0 11 -4 11 -10zM369 21h-269
c-6 0 -11 5 -11 11s5 11 11 11h269c6 0 11 -5 11 -11s-5 -11 -11 -11zM181 21c-6 0 -10 5 -10 11v85c0 6 4 11 10 11s11 -5 11 -11v-85c0 -6 -5 -11 -11 -11zM235 21c-6 0 -11 5 -11 11v107c0 6 5 10 11 10s10 -4 10 -10v-107c0 -6 -4 -11 -10 -11zM288 21
c-6 0 -11 5 -11 11v85c0 6 5 11 11 11s11 -5 11 -11v-85c0 -6 -5 -11 -11 -11z" />
    <glyph glyph-name="uniFBA2" unicode="&#x6bb;" horiz-adv-x="459" arabic-form="initial" 
d="M299 256h-150v107h150v-107zM171 277h106v64h-106v-64zM405 -64h-384v512h384v-512zM43 -43h341v470h-341v-470zM395 288v21h53v-21h-53zM395 203v21h53v-21h-53zM395 117v22h53v-22h-53zM416 32h-21v21h21c12 0 21 10 21 22v277c0 12 -9 21 -21 21h-21v22h21
c24 0 43 -19 43 -43v-277c0 -24 -19 -43 -43 -43zM0 341v22h64v-22h-64zM0 277v22h64v-22h-64zM0 213v22h64v-22h-64zM0 149v22h64v-22h-64zM0 85v22h64v-22h-64zM0 21v22h64v-22h-64z" />
    <glyph glyph-name="uniFB86" unicode="&#x68e;" arabic-form="isolated" 
d="M139 -64c-6 0 -11 5 -11 11v490c0 6 5 11 11 11s10 -5 10 -11v-490c0 -6 -4 -11 -10 -11zM256 -64c-6 0 -11 5 -11 11v490c0 6 5 11 11 11s11 -5 11 -11v-490c0 -6 -5 -11 -11 -11zM373 -64c-6 0 -10 5 -10 11v490c0 6 4 11 10 11s11 -5 11 -11v-490c0 -6 -5 -11 -11 -11
zM501 299h-490c-6 0 -11 4 -11 10s5 11 11 11h490c6 0 11 -5 11 -11s-5 -10 -11 -10zM501 181h-490c-6 0 -11 5 -11 11s5 11 11 11h490c6 0 11 -5 11 -11s-5 -11 -11 -11zM501 64h-490c-6 0 -11 5 -11 11s5 10 11 10h490c6 0 11 -4 11 -10s-5 -11 -11 -11z" />
    <glyph glyph-name="uniFBA9" unicode="&#x6c1;" arabic-form="medial" 
d="M171 75v21h159v-21h-159zM305 -11v22h89v-22h-89zM299 331h-43c-6 0 -11 4 -11 10s5 11 11 11h43c6 0 10 -5 10 -11s-4 -10 -10 -10zM395 288h-118c-6 0 -10 5 -10 11s4 10 10 10h118c6 0 10 -4 10 -10s-4 -11 -10 -11zM384 245h-139c-6 0 -10 5 -10 11s4 11 10 11h139
c6 0 11 -5 11 -11s-5 -11 -11 -11zM395 203h-150c-6 0 -10 4 -10 10s4 11 10 11h150c6 0 10 -5 10 -11s-4 -10 -10 -10zM373 160h-128c-6 0 -10 5 -10 11s4 10 10 10h128c6 0 11 -4 11 -10s-5 -11 -11 -11zM384 117h-149c-6 0 -11 5 -11 11s5 11 11 11h149c6 0 11 -5 11 -11
s-5 -11 -11 -11zM214 427v21h266v-21h-266zM266 -53h-266v21c9 0 15 2 19 6c10 10 10 34 10 55c0 23 0 46 12 58c6 6 14 9 23 9h98c21 117 19 307 19 309c0 15 8 43 33 43v-21c-10 0 -11 -22 -11 -22c0 -8 2 -204 -22 -322l-2 -8h-115c-5 0 -6 -2 -7 -3c-6 -6 -6 -26 -6 -43
c0 -21 0 -44 -10 -61h225c9 0 16 2 20 6c10 10 9 34 9 55c0 23 1 46 13 58c6 6 13 9 22 9c11 0 19 -3 25 -9c10 -10 10 -25 10 -39c0 -12 0 -25 6 -31c4 -4 12 -6 23 -6c1 0 5 0 10 5c43 44 45 296 43 389c0 15 8 43 33 43c28 0 32 -53 32 -85v-11h-43
c0 -101 -5 -304 -50 -351c-7 -8 -16 -12 -25 -12c-17 0 -29 4 -38 13c-12 13 -12 30 -12 46c0 10 0 20 -4 24c-2 2 -7 3 -10 3c-5 0 -6 -2 -7 -3c-6 -6 -6 -26 -6 -43c0 -25 0 -53 -16 -70c-8 -8 -20 -12 -35 -12zM469 373h21c-1 26 -6 51 -11 54c-9 0 -10 -22 -10 -22v-32z
" />
    <glyph glyph-name="uniFB71" unicode="&#x6a6;" horiz-adv-x="469" arabic-form="medial" 
d="M352 -64h-64c-6 0 -11 5 -11 11v32h-224c-6 0 -10 4 -10 10v224h-32c-6 0 -11 5 -11 11v64c0 6 5 11 11 11h32v32c0 6 4 10 10 10h64c6 0 11 -4 11 -10v-32h224c6 0 11 -5 11 -11v-224h32c6 0 10 -5 10 -11v-64c0 -6 -4 -10 -10 -10h-32v-32c0 -6 -5 -11 -11 -11z
M299 -43h42v32c0 6 5 11 11 11h32v43h-32c-6 0 -11 4 -11 10v224h-224c-6 0 -10 5 -10 11v32h-43v-32c0 -6 -5 -11 -11 -11h-32v-42h32c6 0 11 -5 11 -11v-224h224c6 0 11 -5 11 -11v-32zM288 43h-171c-6 0 -10 4 -10 10v171c0 6 4 11 10 11h171c6 0 11 -5 11 -11v-171
c0 -6 -5 -10 -11 -10zM128 64h149v149h-149v-149zM117 43c-3 0 -5 1 -7 3c-4 4 -4 11 0 15l170 171c4 4 12 4 16 0s4 -12 0 -16l-171 -170c-2 -2 -5 -3 -8 -3zM352 277c-3 0 -6 1 -8 3c-4 4 -4 12 0 16l107 106c4 4 11 4 15 0s4 -11 0 -15l-106 -107c-2 -2 -5 -3 -8 -3z
M149 277h-106c-6 0 -11 5 -11 11s5 11 11 11h106c6 0 11 -5 11 -11s-5 -11 -11 -11zM117 213h-64c-6 0 -10 5 -10 11s4 11 10 11h64c6 0 11 -5 11 -11s-5 -11 -11 -11zM352 43h-64c-6 0 -11 4 -11 10s5 11 11 11h64c6 0 11 -5 11 -11s-5 -10 -11 -10zM352 -21h-64
c-6 0 -11 4 -11 10s5 11 11 11h64c6 0 11 -5 11 -11s-5 -10 -11 -10z" />
    <glyph glyph-name="uniFBAC" unicode="&#x6be;" arabic-form="initial" 
d="M501 -21h-490c-6 0 -11 4 -11 10v150c0 18 14 32 32 32h21c6 0 11 -5 11 -11c0 -7 28 -21 64 -21c44 0 64 12 64 21c0 3 2 7 5 9s6 2 9 1l285 -102c13 -5 21 -17 21 -30v-49c0 -6 -5 -10 -11 -10zM21 0h470v38c0 4 -3 8 -7 10l-274 98c-10 -18 -40 -29 -82 -29
c-35 0 -73 12 -83 32h-13c-6 0 -11 -4 -11 -10v-139zM11 21v22h490v-22h-490zM235 107c-3 0 -6 1 -8 3c-4 4 -4 11 0 15l23 23c4 4 11 4 15 0s4 -11 0 -15l-23 -23c-2 -2 -4 -3 -7 -3zM277 96c-3 0 -5 1 -7 3c-4 4 -4 11 0 15l19 20c4 4 12 4 16 0s4 -11 0 -15l-20 -20
c-2 -2 -5 -3 -8 -3zM267 32h-22v11c0 24 19 42 43 42h64c5 0 11 7 11 14h21c0 -17 -13 -35 -32 -35h-64c-12 0 -21 -9 -21 -21v-11zM75 21c-6 0 -11 5 -11 11c0 29 -24 53 -53 53c-6 0 -11 5 -11 11s5 11 11 11c41 0 74 -34 74 -75c0 -6 -4 -11 -10 -11zM309 213
c-1 0 -2 1 -3 1l-285 102c-13 5 -21 17 -21 30v49c0 6 5 10 11 10h490c6 0 11 -4 11 -10v-150c0 -18 -14 -32 -32 -32h-21c-6 0 -11 5 -11 11c0 7 -28 21 -64 21c-44 0 -64 -12 -64 -21c0 -3 -2 -7 -5 -9c-2 -1 -4 -2 -6 -2zM467 235h13c6 0 11 4 11 10v139h-470v-38
c0 -4 3 -8 7 -10l274 -98c10 18 40 29 82 29c35 0 73 -12 83 -32zM11 341v22h490v-22h-490zM254 233c-3 0 -5 1 -7 3c-4 4 -4 11 0 15l23 23c4 4 11 4 15 0s4 -11 0 -15l-23 -23c-2 -2 -5 -3 -8 -3zM215 247c-3 0 -6 1 -8 3c-4 4 -4 11 0 15l20 20c4 4 11 4 15 0
s4 -11 0 -15l-19 -20c-2 -2 -5 -3 -8 -3zM149 285h-21c0 17 13 35 32 35h64c12 0 21 9 21 21v11h22v-11c0 -24 -19 -42 -43 -42h-64c-5 0 -11 -7 -11 -14zM501 277c-41 0 -74 34 -74 75c0 6 4 11 10 11s11 -5 11 -11c0 -29 24 -53 53 -53c6 0 11 -5 11 -11s-5 -11 -11 -11z
" />
    <glyph glyph-name="uniFB77" unicode="&#x683;" arabic-form="final" 
d="M469 -64h-426c-24 0 -43 19 -43 43v320c0 24 19 42 43 42h213c6 0 11 -4 11 -10s-5 -11 -11 -11h-213c-12 0 -22 -9 -22 -21v-320c0 -12 10 -22 22 -22h426c12 0 22 10 22 22v320c0 12 -10 21 -22 21c-6 0 -10 5 -10 11s4 10 10 10c24 0 43 -18 43 -42v-320
c0 -24 -19 -43 -43 -43zM469 -21h-362v320h106c6 0 11 -5 11 -11s-5 -11 -11 -11h-85v-277h320v277h-21c-6 0 -11 5 -11 11s5 11 11 11h42v-320zM85 -0h-85v277h85v-277zM21 21h43v235h-43v-235zM186 154l28 89l192 191c16 16 44 16 60 0c17 -17 17 -43 0 -60l-191 -192z
M233 231l-14 -44l44 14l188 188c8 8 8 22 0 30s-22 8 -30 0zM11 171v21h64v-21h-64zM11 85v22h64v-22h-64zM444 356c-3 0 -6 1 -8 3l-45 45c-4 4 -4 11 0 15s11 4 15 0l45 -45c4 -4 4 -11 0 -15c-2 -2 -4 -3 -7 -3zM383 296c-3 0 -5 1 -7 3l-45 45c-4 4 -4 11 0 15
s11 4 15 0l45 -45c4 -4 4 -11 0 -15c-2 -2 -5 -3 -8 -3zM269 181c-3 0 -6 1 -8 3l-45 45c-4 4 -4 11 0 15s11 4 15 0l45 -45c4 -4 4 -11 0 -15c-2 -2 -4 -3 -7 -3zM181 139c-3 0 -5 1 -7 3c-4 4 -4 11 0 15l21 21c4 4 11 4 15 0s4 -11 0 -15l-21 -21c-2 -2 -5 -3 -8 -3z" />
    <glyph glyph-name="uniFB61" unicode="&#x67a;" arabic-form="medial" 
d="M256 72c-2 0 -3 1 -5 2c-5 3 -134 77 -134 169c0 53 38 80 75 80c24 0 50 -11 64 -35c15 25 41 36 65 36c37 0 74 -26 74 -75c0 -86 -128 -171 -133 -175c-2 -1 -4 -2 -6 -2zM192 302c-26 0 -53 -19 -53 -59c0 -70 93 -132 117 -147c24 17 117 88 117 153
c0 37 -27 54 -52 54c-22 0 -48 -13 -54 -49c-1 -5 -6 -9 -11 -9v0c-5 0 -10 4 -11 9c-5 35 -32 48 -53 48zM29 -50c-3 0 -6 1 -8 3c-3 3 -3 8 -1 12l51 103c-46 39 -71 90 -71 145c0 116 115 211 256 211s256 -95 256 -211s-115 -210 -256 -210c-29 0 -58 3 -85 11l-137 -63
c-1 -1 -3 -1 -5 -1zM256 403c-129 0 -235 -86 -235 -190c0 -51 25 -98 70 -134c4 -3 5 -9 3 -13l-42 -83l114 52c2 1 4 2 7 1c26 -8 54 -12 83 -12c129 0 235 85 235 189s-106 190 -235 190z" />
    <glyph glyph-name="uniFB60" unicode="&#x67a;" arabic-form="initial" 
d="M64 -36v100h-32c-18 0 -32 14 -32 32v277c0 18 14 32 32 32h448c18 0 32 -14 32 -32v-277c0 -18 -14 -32 -32 -32h-316zM32 384c-6 0 -11 -5 -11 -11v-277c0 -6 5 -11 11 -11h53v-70l71 70h324c6 0 11 5 11 11v277c0 6 -5 11 -11 11h-448zM149 235c0 14 8 21 22 21
s21 -7 21 -21s-7 -22 -21 -22s-22 8 -22 22zM320 235c0 14 7 21 21 21s22 -7 22 -21s-8 -22 -22 -22s-21 8 -21 22zM235 235c0 14 7 21 21 21s21 -7 21 -21s-7 -22 -21 -22s-21 8 -21 22z" />
    <glyph glyph-name="uniFB72" unicode="&#x684;" arabic-form="isolated" 
d="M447 43h-382l-3 1c-39 26 -62 69 -62 116c0 76 63 139 139 139c22 0 44 -6 63 -16l-10 -19c-17 9 -34 13 -53 13c-65 0 -118 -52 -118 -117c0 -38 19 -74 50 -96h370c31 22 50 58 50 96c0 65 -53 117 -118 117c-19 0 -36 -4 -53 -13l-10 19c19 10 41 16 63 16
c76 0 139 -63 139 -139c0 -47 -23 -90 -62 -116zM448 -64h-384c-28 0 -42 22 -42 43s14 42 42 42h384c28 0 42 -21 42 -42s-14 -43 -42 -43zM64 -0c-16 0 -21 -11 -21 -21s5 -22 21 -22h384c16 0 21 12 21 22s-5 21 -21 21h-384zM135 106c-4 0 -8 3 -10 7c-5 15 -8 31 -8 47
c0 76 63 139 139 139s139 -63 139 -139c0 -16 -3 -31 -8 -46c-2 -6 -8 -9 -14 -7s-8 8 -6 14c4 13 6 26 6 39c0 65 -52 117 -117 117s-117 -52 -117 -117c0 -14 1 -26 6 -39c2 -6 0 -12 -6 -14c-1 0 -3 -1 -4 -1zM256 320c-35 0 -64 29 -64 64s29 64 64 64s64 -29 64 -64
s-29 -64 -64 -64zM256 427c-24 0 -43 -19 -43 -43s19 -43 43 -43s43 19 43 43s-19 43 -43 43zM309 373h-106c-6 0 -11 5 -11 11s5 11 11 11h106c6 0 11 -5 11 -11s-5 -11 -11 -11zM256 277c-6 0 -11 5 -11 11v43c0 6 5 10 11 10s11 -4 11 -10v-43c0 -6 -5 -11 -11 -11z" />
    <glyph glyph-name="uniFBA1" unicode="&#x6bb;" arabic-form="final" 
d="M448 405v0c12 0 21 -9 21 -21s-9 -21 -21 -21s-21 9 -21 21s9 21 21 21zM64 405v0c12 0 21 -9 21 -21s-9 -21 -21 -21s-21 9 -21 21s9 21 21 21zM448 21v0c12 0 21 -9 21 -21s-9 -21 -21 -21s-21 9 -21 21s9 21 21 21zM64 21v0c12 0 21 -9 21 -21s-9 -21 -21 -21
s-21 9 -21 21s9 21 21 21zM256 139c-29 0 -53 24 -53 53s24 53 53 53s53 -24 53 -53s-24 -53 -53 -53zM256 224c-18 0 -32 -14 -32 -32s14 -32 32 -32s32 14 32 32s-14 32 -32 32zM256 -0c-106 0 -192 86 -192 192s86 192 192 192s192 -86 192 -192s-86 -192 -192 -192z
M256 363c-94 0 -171 -77 -171 -171s77 -171 171 -171s171 77 171 171s-77 171 -171 171zM448 -64v0c-17 0 -33 7 -45 19l-33 32c-35 -20 -74 -30 -114 -30s-79 10 -114 30l-33 -32c-12 -12 -28 -19 -45 -19s-33 7 -45 19s-19 28 -19 45s7 33 19 45l32 33
c-20 35 -30 74 -30 114s10 79 30 114l-32 33c-12 12 -19 28 -19 45s7 33 19 45s28 19 45 19s33 -7 45 -19l33 -32c35 20 74 30 114 30s79 -10 114 -30l33 32c12 12 28 19 45 19s33 -7 45 -19s19 -28 19 -45s-7 -33 -19 -45l-32 -33c20 -35 30 -74 30 -114s-10 -79 -30 -114
l32 -33c12 -12 19 -28 19 -45s-7 -33 -19 -45s-28 -19 -45 -19zM374 14l44 -44c8 -8 19 -13 30 -13s22 5 30 13s13 19 13 30s-5 22 -13 30l-44 44l4 8c20 33 31 71 31 110s-11 77 -31 110l-4 8l44 44c8 8 13 19 13 30s-5 22 -13 30s-19 13 -30 13s-22 -5 -30 -13l-44 -44
l-8 4c-33 20 -71 31 -110 31s-77 -11 -110 -31l-8 -4l-44 44c-8 8 -19 13 -30 13s-22 -5 -30 -13s-13 -19 -13 -30s5 -22 13 -30l44 -44l-4 -8c-20 -33 -31 -71 -31 -110s11 -77 31 -110l4 -8l-44 -44c-8 -8 -13 -19 -13 -30s5 -22 13 -30s19 -13 30 -13s22 5 30 13l44 44
l8 -4c33 -20 71 -31 110 -31s77 11 110 31z" />
    <glyph glyph-name="uniFBD6" unicode="&#x6ad;" horiz-adv-x="448" arabic-form="medial" 
d="M279 97v0c36 -6 169 -65 169 -129h-448c0 64 133 123 169 129c11 2 11 32 11 32s-33 32 -40 75c-19 0 -30 46 -11 62c-1 17 -25 134 95 134s96 -117 95 -134c19 -16 8 -62 -11 -62c-7 -43 -40 -75 -40 -75s0 -30 11 -32z" />
    <glyph glyph-name="uniFB69" unicode="&#x679;" arabic-form="medial" 
d="M448 427h-384c-24 0 -43 -19 -43 -43v-384c0 -24 19 -43 43 -43h384c24 0 43 19 43 43v384c0 24 -19 43 -43 43zM448 448v0c35 0 64 -29 64 -64v-384c0 -35 -29 -64 -64 -64h-384c-35 0 -64 29 -64 64v384c0 35 29 64 64 64h384zM256 363c-94 0 -171 -77 -171 -171
s77 -171 171 -171s171 77 171 171s-77 171 -171 171zM256 384v0c106 0 192 -86 192 -192s-86 -192 -192 -192s-192 86 -192 192s86 192 192 192zM320 181h-75v118c0 6 5 10 11 10s11 -4 11 -10v-96h53c6 0 11 -5 11 -11s-5 -11 -11 -11z" />
    <glyph glyph-name="uniFB55" unicode="&#x67b;" arabic-form="medial" 
d="M405 149h-1c-6 1 -10 7 -9 13l20 130c5 34 -5 68 -27 94s-55 41 -89 41h-86c-34 0 -67 -15 -89 -41s-32 -61 -27 -95l20 -129c1 -6 -3 -12 -9 -13s-11 3 -12 9l-20 130c-6 40 6 81 32 112s64 48 105 48h86c41 0 79 -17 105 -48s38 -72 32 -112l-20 -130
c-1 -5 -6 -9 -11 -9zM128 -64c-6 0 -11 5 -11 11v21c0 6 5 11 11 11s11 -5 11 -11v-21c0 -6 -5 -11 -11 -11zM384 -64c-6 0 -11 5 -11 11v21c0 6 5 11 11 11s11 -5 11 -11v-21c0 -6 -5 -11 -11 -11zM395 -43h-278c-41 0 -74 34 -74 75v43c0 6 -4 12 -10 14
c-20 8 -33 28 -33 50c0 29 24 53 53 53c47 0 86 -38 86 -85v-16c19 7 55 16 117 16s98 -9 117 -16v16c0 47 39 85 86 85c29 0 53 -24 53 -53c0 -22 -13 -42 -33 -50c-6 -2 -10 -8 -10 -14v-43c0 -41 -33 -75 -74 -75zM53 171c-18 0 -32 -14 -32 -32c0 -13 8 -25 20 -30
c14 -6 23 -19 23 -34v-43c0 -29 24 -53 53 -53h278c29 0 53 24 53 53v43c0 15 9 28 23 34c12 5 20 17 20 30c0 18 -14 32 -32 32c-35 0 -64 -29 -64 -64v-52l-17 11s-32 19 -122 19s-122 -19 -122 -19l-17 -11v52c0 35 -29 64 -64 64zM309 224c-3 0 -5 1 -7 3l-22 21
c-4 4 -4 12 0 16l22 21c4 4 11 4 15 0s4 -11 0 -15l-14 -14l14 -14c4 -4 4 -11 0 -15c-2 -2 -5 -3 -8 -3zM203 224c-3 0 -6 1 -8 3c-4 4 -4 11 0 15l14 14l-14 14c-4 4 -4 11 0 15s11 4 15 0l22 -21c4 -4 4 -12 0 -16l-22 -21c-2 -2 -4 -3 -7 -3zM256 213
c-24 0 -43 19 -43 43s19 43 43 43s43 -19 43 -43s-19 -43 -43 -43zM256 277c-12 0 -21 -9 -21 -21s9 -21 21 -21s21 9 21 21s-9 21 -21 21z" />
    <glyph glyph-name="uniFBD5" unicode="&#x6ad;" horiz-adv-x="480" arabic-form="initial" 
d="M240 96h240v-128h-480v128h240zM448 32v32h-64v-32h64zM112 288l128 128l128 -128h-80v-160h-96v160h-80z" />
    <glyph glyph-name="uniFB78" unicode="&#x683;" horiz-adv-x="405" arabic-form="initial" 
d="M395 -64h-150c-6 0 -10 5 -10 11v490c0 6 4 11 10 11h150c6 0 10 -5 10 -11v-490c0 -6 -4 -11 -10 -11zM256 -43h128v470h-128v-470zM245 341v22h54v-22h-54zM245 277v22h54v-22h-54zM245 213v22h54v-22h-54zM245 149v22h54v-22h-54zM245 85v22h54v-22h-54zM245 21v22h54
v-22h-54zM96 -43h-43c-29 0 -53 25 -53 54v309c0 2 1 4 2 6l64 96c4 6 14 6 18 0l64 -96c1 -2 1 -4 1 -6v-309c0 -29 -24 -54 -53 -54zM21 317v-306c0 -18 14 -32 32 -32h43c18 0 32 14 32 32v306l-53 80zM139 21h-128c-6 0 -11 5 -11 11s5 11 11 11h128c6 0 10 -5 10 -11
s-4 -11 -10 -11zM139 64h-128c-6 0 -11 5 -11 11s5 10 11 10h128c6 0 10 -4 10 -10s-4 -11 -10 -11zM53 64c-6 0 -10 5 -10 11v202c0 6 4 11 10 11s11 -5 11 -11v-202c0 -6 -5 -11 -11 -11zM96 64c-6 0 -11 5 -11 11v202c0 6 5 11 11 11s11 -5 11 -11v-202
c0 -6 -5 -11 -11 -11zM43 352v21h64v-21h-64zM43 267c-24 0 -43 18 -43 42c0 6 5 11 11 11s10 -5 10 -11c0 -12 10 -21 22 -21s21 9 21 21c0 6 5 11 11 11s10 -5 10 -11c0 -24 -18 -42 -42 -42zM107 267c-24 0 -43 18 -43 42c0 6 5 11 11 11s10 -5 10 -11
c0 -12 10 -21 22 -21s21 9 21 21c0 6 5 11 11 11s10 -5 10 -11c0 -24 -18 -42 -42 -42z" />
    <glyph glyph-name="uniFB62" unicode="&#x67f;" arabic-form="isolated" 
d="M107 -64c-24 0 -43 19 -43 43s19 42 43 42s42 -18 42 -42s-18 -43 -42 -43zM107 0c-12 0 -22 -9 -22 -21s10 -22 22 -22s21 10 21 22s-9 21 -21 21zM341 -64c-24 0 -42 19 -42 43s18 42 42 42s43 -18 43 -42s-19 -43 -43 -43zM341 0c-12 0 -21 -9 -21 -21s9 -22 21 -22
s22 10 22 22s-10 21 -22 21zM224 277c-6 0 -11 5 -11 11v149c0 6 5 11 11 11s11 -5 11 -11v-149c0 -6 -5 -11 -11 -11zM288 363c-3 0 -6 1 -8 3l-56 56l-56 -56c-4 -4 -12 -4 -16 0s-4 11 0 15l64 64c4 4 12 4 16 0l64 -64c4 -4 4 -11 0 -15c-2 -2 -5 -3 -8 -3zM341 0h-234
c-6 0 -11 5 -11 11s5 10 11 10h226l83 355c1 5 6 8 11 8h74c6 0 11 -5 11 -11s-5 -10 -11 -10h-66l-83 -355c-1 -5 -6 -8 -11 -8zM352 43h-277c-5 0 -9 3 -10 7l-64 192c-1 3 -1 7 1 10s6 4 9 4h384c6 0 10 -5 10 -11s-4 -10 -10 -10h-370l57 -171h270c6 0 11 -5 11 -11
s-5 -10 -11 -10z" />
    <glyph glyph-name="uniFBF2" unicode="&#xfbf2;" arabic-form="isolated" 
d="M256 448c141 0 256 -115 256 -256s-115 -256 -256 -256s-256 115 -256 256s115 256 256 256zM173 128v0c7 0 10 5 12 9c0 0 48 85 50 88l-31 55c-2 4 -6 9 -13 9h-47c-3 0 -5 -1 -6 -3s-1 -4 0 -7l32 -54v0l-50 -87c-1 -3 -1 -5 0 -7s3 -3 6 -3h47zM392 342h-1
c1 3 2 5 1 7s-4 3 -7 3h-46c-7 0 -11 -5 -13 -9c0 0 -100 -176 -103 -182l66 -120c2 -4 6 -9 13 -9h46c3 0 5 1 6 3s1 4 0 7l-65 119v0z" />
    <glyph glyph-name="uniFBDB" unicode="&#x6c8;" arabic-form="isolated" 
d="M488 -64h-336c-13 0 -24 11 -24 24c0 34 15 76 39 111c20 30 45 52 72 65c-12 11 -22 24 -30 39c-13 24 -20 52 -20 81c0 40 13 78 37 106c25 30 58 46 94 46s69 -16 94 -46c24 -28 37 -66 37 -106c0 -29 -7 -57 -20 -81c-8 -15 -18 -28 -30 -39c27 -13 52 -35 72 -65
c24 -35 39 -77 39 -111c0 -13 -11 -24 -24 -24v0zM179 -16h282c-5 20 -14 41 -27 60c-21 30 -47 50 -73 56c-11 2 -19 12 -19 23v17c0 9 5 17 12 21c30 17 49 54 49 95c0 57 -37 104 -83 104s-83 -47 -83 -104c0 -41 19 -78 49 -95c8 -4 12 -12 12 -21v-17
c0 -11 -8 -21 -19 -23c-26 -6 -52 -26 -73 -56c-13 -19 -22 -40 -27 -60zM99 16v0c-5 -16 -8 -32 -9 -48h-66c-13 0 -24 11 -24 24c0 34 15 76 39 111c20 30 45 52 72 65c-12 11 -22 24 -30 39c-13 24 -20 52 -20 81c0 40 13 78 37 106c25 30 58 46 94 46c19 0 37 -4 54 -13
c-16 -9 -32 -21 -45 -36c-3 0 -6 1 -9 1c-46 0 -83 -47 -83 -104c0 -41 19 -78 49 -95c7 -4 12 -12 12 -21v-17c0 -11 -8 -21 -19 -23c-26 -6 -52 -26 -73 -56c-13 -19 -22 -40 -27 -60h48z" />
    <glyph glyph-name="uniFBD9" unicode="&#x6c6;" horiz-adv-x="384" arabic-form="isolated" 
d="M96 352c0 53 43 96 96 96s96 -43 96 -96s-43 -96 -96 -96s-96 43 -96 96zM320 224c64 0 64 -43 64 -96v-160h-384v160c0 53 0 96 64 96h18l99 -202l-37 186l48 48l48 -48l-37 -186l99 202h18z" />
    <glyph glyph-name="uniFBD7" unicode="&#x6c7;" horiz-adv-x="384" arabic-form="isolated" 
d="M360 -64h-336c-13 0 -24 11 -24 24c0 34 15 76 39 111c20 30 45 52 72 65c-12 11 -22 24 -30 39c-13 24 -20 52 -20 81c0 40 13 78 37 106c25 30 58 46 94 46s69 -16 94 -46c24 -28 37 -66 37 -106c0 -29 -7 -57 -20 -81c-8 -15 -18 -28 -30 -39c27 -13 52 -35 72 -65
c24 -35 39 -77 39 -111c0 -13 -11 -24 -24 -24v0zM51 -16h282c-5 20 -14 41 -27 60c-21 30 -47 50 -73 56c-11 2 -19 12 -19 23v17c0 9 5 17 12 21c30 17 49 54 49 95c0 57 -37 104 -83 104s-83 -47 -83 -104c0 -41 19 -78 49 -95c8 -4 12 -12 12 -21v-17
c0 -11 -8 -21 -19 -23c-26 -6 -52 -26 -73 -56c-13 -19 -22 -40 -27 -60z" />
    <glyph glyph-name="uniFBD8" unicode="&#x6c7;" arabic-form="final" 
d="M128 288c0 71 57 128 128 128s128 -57 128 -128s-57 -128 -128 -128s-128 57 -128 128zM384 128c71 0 128 -57 128 -128v-32h-512v32c0 71 57 128 128 128h256z" />
    <glyph glyph-name="uniFBE7" unicode="&#x6d0;" arabic-form="medial" 
d="M256 369l-172 -369h344zM256 448v0c11 0 22 -7 30 -22l219 -436c17 -30 2 -54 -32 -54h-434c-34 0 -49 24 -32 54l219 436c8 15 19 22 30 22v0zM224 64c0 18 14 32 32 32s32 -14 32 -32s-14 -32 -32 -32s-32 14 -32 32zM256 256c18 0 32 -14 32 -32l-10 -96h-44l-10 96
c0 18 14 32 32 32z" />
    <glyph glyph-name="uniFBE2" unicode="&#x6c9;" horiz-adv-x="336" arabic-form="isolated" 
d="M275 77c-6 0 -12 3 -17 8c-9 9 -9 24 0 33c41 41 41 107 0 148c-9 9 -9 24 0 33s24 9 33 0c59 -59 59 -156 0 -215c-5 -5 -11 -7 -17 -7h1zM201 409c13 13 23 8 23 -10v-414c0 -18 -10 -23 -23 -10l-121 121h-80v192h80l121 121v0z" />
    <glyph glyph-name="uniFB6C" unicode="&#x6a4;" arabic-form="initial" 
d="M267 -64h-214c-29 0 -53 24 -53 53v64c0 6 5 11 11 11s10 -5 10 -11c0 -18 14 -32 32 -32h214c18 0 32 14 32 32c0 6 4 11 10 11s11 -5 11 -11v-64c0 -29 -24 -53 -53 -53zM21 11v-22c0 -18 14 -32 32 -32h214c18 0 32 14 32 32v22c-9 -7 -20 -11 -32 -11h-214
c-12 0 -23 4 -32 11zM427 -64c-15 0 -65 1 -83 19c-2 2 -3 5 -3 8v437c0 3 1 6 3 8c18 18 68 19 83 19s64 -1 82 -19c2 -2 3 -5 3 -8v-437c0 -3 -1 -6 -3 -8c-18 -18 -67 -19 -82 -19zM363 -32c9 -6 33 -11 64 -11s55 5 64 11v427c-9 6 -33 10 -64 10s-55 -4 -64 -10v-427z
M301 47l-46 61c-9 12 -25 20 -40 20h-110c-15 0 -31 -8 -40 -20l-46 -61l-17 13l46 61c13 18 35 28 57 28h110c22 0 44 -10 57 -28l46 -61zM427 261c-29 0 -54 25 -54 54s25 53 54 53s53 -24 53 -53s-24 -54 -53 -54zM427 347c-18 0 -32 -14 -32 -32s14 -32 32 -32
s32 14 32 32s-14 32 -32 32zM395 251v0c12 0 21 -10 21 -22s-9 -21 -21 -21s-22 9 -22 21s10 22 22 22zM459 251v0c12 0 21 -10 21 -22s-9 -21 -21 -21s-22 9 -22 21s10 22 22 22z" />
    <glyph glyph-name="uniFBDF" unicode="&#x6cb;" arabic-form="final" 
d="M214 416c6 0 10 -6 10 -17v-414c0 -11 -4 -17 -10 -17c-4 0 -8 2 -13 7l-121 121h-80v192h80l121 121c5 5 9 7 13 7v0zM256 224h256v-64h-256v64z" />
    <glyph glyph-name="uniFBA7" unicode="&#x6c1;" arabic-form="final" 
d="M437 53h-362c-6 0 -11 5 -11 11v235c0 6 5 10 11 10h32v-21h-22v-213h342v42h21v-53c0 -6 -5 -11 -11 -11zM501 139h-362c-6 0 -11 4 -11 10v235c0 6 5 11 11 11h362c6 0 11 -5 11 -11v-235c0 -6 -5 -10 -11 -10zM149 160h342v213h-342v-213zM373 -32h-362
c-6 0 -11 5 -11 11v234c0 6 5 11 11 11h32v-21h-22v-214h342v43h21v-53c0 -6 -5 -11 -11 -11z" />
    <glyph glyph-name="uniFBDA" unicode="&#x6c6;" arabic-form="final" 
d="M367 45v0c31 -5 145 -54 145 -109h-384c0 55 113 104 144 109c9 1 10 28 10 28s-28 27 -34 64c-16 0 -26 39 -10 53c-1 14 -21 113 82 113s83 -99 82 -113c16 -14 6 -53 -10 -53c-6 -37 -34 -64 -34 -64s0 -27 9 -28zM172 37v0c-2 -2 -5 -3 -7 -5h-165
c0 55 113 104 144 109c9 1 10 28 10 28s-28 27 -34 64c-16 0 -26 39 -10 53c-1 14 -21 113 82 113c64 0 80 -38 83 -70c-18 -6 -32 -15 -44 -28c-30 -33 -28 -79 -26 -102c-4 -7 -6 -15 -7 -23c-1 -11 1 -24 5 -35s10 -20 18 -26c6 -18 14 -34 22 -45
c-22 -8 -49 -19 -71 -33z" />
    <glyph glyph-name="uniFBA8" unicode="&#x6c1;" arabic-form="initial" 
d="M512 -64h-395v21h374v374h21v-395zM469 -21h-416v21h395v395h21v-416zM405 427h-384v-384h384v384zM427 448v0v-427h-427v427h427zM105 112l-18 11l64 106c2 3 5 6 8 6s7 -1 9 -4l44 -53l78 116c2 3 6 5 10 5s8 -3 9 -7l64 -171l-20 -7l-57 151l-74 -111
c-2 -3 -5 -5 -8 -5s-7 1 -9 4l-44 53zM128 299c-24 0 -43 18 -43 42s19 43 43 43s43 -19 43 -43s-19 -42 -43 -42zM128 363c-12 0 -21 -10 -21 -22s9 -21 21 -21s21 9 21 21s-9 22 -21 22zM0 107v21h427v-21h-427z" />
    <glyph glyph-name="uniFB53" unicode="&#x67b;" horiz-adv-x="416" arabic-form="final" 
d="M224 351c107 -8 192 -98 192 -207c0 -115 -93 -208 -208 -208s-208 93 -208 208c0 109 85 199 192 207v33h-64v32c0 18 14 32 32 32h96c18 0 32 -14 32 -32v-32h-64v-33zM321 31v0c30 30 47 70 47 113s-17 83 -47 113c-29 29 -67 46 -108 47l11 -157
c1 -13 -6 -19 -16 -19s-17 6 -16 19l11 157c-41 -1 -79 -18 -108 -47c-30 -30 -47 -70 -47 -113s17 -83 47 -113s70 -47 113 -47s83 17 113 47z" />
    <glyph glyph-name="uniFBF5" unicode="&#xfbf5;" arabic-form="final" 
d="M416 384c53 0 96 -43 96 -96v-192c0 -53 -43 -96 -96 -96h-320c-53 0 -96 43 -96 96v192c0 53 43 96 96 96h320zM192 64l160 128l-160 128v-256z" />
    <glyph glyph-name="uniFB58" unicode="&#x67e;" arabic-form="initial" 
d="M363 192c-6 0 -11 5 -11 11v128c0 53 -43 96 -96 96s-96 -43 -96 -96v-128c0 -6 -5 -11 -11 -11s-10 5 -10 11v128c0 65 52 117 117 117s117 -52 117 -117v-128c0 -6 -4 -11 -10 -11zM437 -64h-362c-41 0 -75 34 -75 75v138c0 59 48 107 107 107h298
c59 0 107 -48 107 -107v-138c0 -41 -34 -75 -75 -75zM107 235c-47 0 -86 -39 -86 -86v-138c0 -29 25 -54 54 -54h362c29 0 54 25 54 54v138c0 47 -39 86 -86 86h-298zM117 -64c-6 0 -10 5 -10 11c0 53 -43 96 -96 96c-6 0 -11 4 -11 10s5 11 11 11c65 0 117 -52 117 -117
c0 -6 -5 -11 -11 -11zM395 -64c-6 0 -11 5 -11 11c0 65 52 117 117 117c6 0 11 -5 11 -11s-5 -10 -11 -10c-53 0 -96 -43 -96 -96c0 -6 -4 -11 -10 -11zM459 128h-406c-6 0 -10 5 -10 11s4 10 10 10h406c6 0 10 -4 10 -10s-4 -11 -10 -11zM96 85c-6 0 -11 5 -11 11v43
c0 6 5 10 11 10s11 -4 11 -10v-43c0 -6 -5 -11 -11 -11z" />
    <glyph glyph-name="uniFB8A" unicode="&#x698;" arabic-form="isolated" 
d="M448 -64h-149v139h-86v-139h-149v224c0 6 5 11 11 11s10 -5 10 -11v-203h107v139h128v-139h107v192c0 6 4 11 10 11s11 -5 11 -11v-213zM501 160c-3 0 -5 1 -7 3l-238 228l-238 -228c-4 -4 -11 -4 -15 0s-4 11 0 15l253 242l253 -242c4 -4 4 -11 0 -15c-2 -2 -5 -3 -8 -3
zM416 288c-6 0 -11 5 -11 11v64h-64c-6 0 -10 4 -10 10s4 11 10 11h86v-85c0 -6 -5 -11 -11 -11z" />
    <glyph glyph-name="uniFB94" unicode="&#x6af;" arabic-form="initial" 
d="M256 -53c-2 0 -3 0 -5 1c-3 1 -64 37 -125 94c-84 77 -126 154 -126 227c0 99 67 144 129 144c48 0 102 -28 127 -88c25 60 79 88 127 88c62 0 129 -45 129 -144c0 -73 -42 -150 -126 -227c-61 -57 -122 -93 -125 -94c-2 -1 -3 -1 -5 -1zM129 392
c-52 0 -108 -39 -108 -123c0 -148 200 -277 235 -299c35 22 235 151 235 299c0 84 -56 123 -108 123c-48 0 -103 -33 -117 -106c-1 -5 -5 -9 -10 -9s-9 4 -10 9c-14 73 -69 106 -117 106z" />
    <glyph glyph-name="uniFBE3" unicode="&#x6c9;" horiz-adv-x="440" arabic-form="final" 
d="M360 32c-6 0 -12 2 -17 7c-9 9 -9 25 0 34c66 66 66 172 0 238c-9 9 -9 25 0 34s25 9 34 0c41 -41 63 -95 63 -153s-22 -112 -63 -153c-5 -5 -11 -7 -17 -7v0zM275 77c-6 0 -12 3 -17 8c-9 9 -9 24 0 33c41 41 41 107 0 148c-9 9 -9 24 0 33s24 9 33 0
c59 -59 59 -156 0 -215c-5 -5 -11 -7 -17 -7h1zM201 409c13 13 23 8 23 -10v-414c0 -18 -10 -23 -23 -10l-121 121h-80v192h80l121 121v0z" />
    <glyph glyph-name="uniFB7B" unicode="&#x686;" horiz-adv-x="419" arabic-form="final" 
d="M184 75c-100 0 -181 81 -181 181s81 181 181 181s181 -81 181 -181s-81 -181 -181 -181zM184 416c-88 0 -160 -72 -160 -160s72 -160 160 -160s160 72 160 160s-72 160 -160 160zM184 21c-60 0 -120 23 -166 69l15 15c83 -83 219 -83 302 0s83 219 0 302l15 15
c91 -91 91 -241 0 -332c-46 -46 -106 -69 -166 -69zM163 -11v43h21v-43h-21zM184 -11v43h21v-43h-21zM344 -64h-319l25 19c39 29 85 45 134 45s95 -16 134 -45zM94 -43h180c-28 14 -58 22 -90 22s-62 -8 -90 -22zM11 72c-3 0 -6 1 -8 3c-4 4 -4 11 0 15l30 30c4 4 11 4 15 0
s4 -11 0 -15l-30 -30c-2 -2 -4 -3 -7 -3zM327 389c-3 0 -5 1 -7 3c-4 4 -4 11 0 15l30 30c4 4 11 4 15 0s4 -11 0 -15l-30 -30c-2 -2 -5 -3 -8 -3z" />
    <glyph glyph-name="uniFB74" unicode="&#x684;" arabic-form="initial" 
d="M256 -64c-141 0 -256 115 -256 256s115 256 256 256s256 -115 256 -256s-115 -256 -256 -256zM256 427c-129 0 -235 -106 -235 -235s106 -235 235 -235s235 106 235 235s-106 235 -235 235zM256 149c-24 0 -43 19 -43 43s19 43 43 43s43 -19 43 -43s-19 -43 -43 -43z
M256 213c-12 0 -21 -9 -21 -21s9 -21 21 -21s21 9 21 21s-9 21 -21 21zM279 204c-3 0 -6 1 -8 3c-4 4 -4 11 0 15l106 106c4 4 11 4 15 0s4 -11 0 -15l-106 -106c-2 -2 -4 -3 -7 -3zM96 181h-43c-6 0 -10 5 -10 11s4 11 10 11h43c6 0 11 -5 11 -11s-5 -11 -11 -11zM69 104
c-4 0 -8 2 -10 6c-2 5 1 12 6 14l39 17c5 2 12 -1 14 -6s-1 -12 -6 -14l-39 -16c-1 -1 -3 -1 -4 -1zM443 104c-1 0 -3 0 -4 1l-39 16c-5 2 -8 9 -6 14s9 8 14 6l39 -17c5 -2 8 -9 6 -14c-2 -4 -6 -6 -10 -6zM459 181v0h-43c-6 0 -11 5 -11 11s5 11 11 11v0h43
c6 0 10 -5 10 -11s-4 -11 -10 -11zM404 243c-4 0 -8 2 -10 6c-2 5 1 12 6 14l39 16c5 2 12 0 14 -5s-1 -12 -6 -14l-39 -17c-1 -1 -3 0 -4 0zM317 329c-1 0 -3 0 -4 1c-5 2 -8 9 -6 14l17 39c2 5 9 8 14 6s7 -9 5 -14l-16 -39c-2 -4 -6 -7 -10 -7zM256 341v0
c-6 0 -11 5 -11 11v43c0 6 5 10 11 10v0c6 0 11 -4 11 -10v-43c0 -6 -5 -11 -11 -11zM195 329c-4 0 -8 3 -10 7l-16 39c-2 5 0 12 5 14s12 -1 14 -6l17 -39c2 -5 -1 -12 -6 -14c-1 -1 -3 -1 -4 -1zM143 294c-3 0 -6 2 -8 4l-30 30c-4 4 -4 11 0 15s11 4 15 0l30 -30
c4 -4 4 -11 0 -15c-2 -2 -4 -4 -7 -4zM108 243c-1 0 -3 -1 -4 0l-39 17c-5 2 -8 9 -6 14s9 7 14 5l39 -16c5 -2 8 -9 6 -14c-2 -4 -6 -6 -10 -6zM352 21h-192c-6 0 -11 5 -11 11v64c0 6 5 11 11 11h192c6 0 11 -5 11 -11v-64c0 -6 -5 -11 -11 -11zM171 43h170v42h-170v-42z
" />
    <glyph glyph-name="uniFB91" unicode="&#x6a9;" horiz-adv-x="341" arabic-form="medial" 
d="M288 -64h-235c-29 0 -53 24 -53 53v406c0 29 24 53 53 53h235c29 0 53 -24 53 -53v-406c0 -29 -24 -53 -53 -53zM53 427c-18 0 -32 -14 -32 -32v-406c0 -18 14 -32 32 -32h235c18 0 32 14 32 32v406c0 18 -14 32 -32 32h-235zM288 213h-235c-6 0 -10 5 -10 11v171
c0 6 4 10 10 10h235c6 0 11 -4 11 -10v-171c0 -6 -5 -11 -11 -11zM64 235h213v149h-213v-149zM171 -21c-59 0 -107 47 -107 106s48 107 107 107s106 -48 106 -107s-47 -106 -106 -106zM171 171c-47 0 -86 -39 -86 -86s39 -85 86 -85s85 38 85 85s-38 86 -85 86zM171 21
c-35 0 -64 29 -64 64s29 64 64 64s64 -29 64 -64s-29 -64 -64 -64zM171 128c-24 0 -43 -19 -43 -43s19 -42 43 -42s42 18 42 42s-18 43 -42 43z" />
    <glyph glyph-name="uniFBA5" unicode="&#x6c0;" horiz-adv-x="405" arabic-form="final" 
d="M341 277h-256c-24 0 -42 19 -42 43v64c0 24 18 43 42 43h256c24 0 43 -19 43 -43v-64c0 -24 -19 -43 -43 -43zM85 405c-12 0 -21 -9 -21 -21v-64c0 -12 9 -21 21 -21h256c12 0 22 9 22 21v64c0 12 -10 21 -22 21h-256zM373 341v22h32v-22h-32zM235 128h-22v96
c0 6 -4 11 -10 11h-160c-27 0 -43 15 -43 42v43c0 27 16 43 43 43h10v-22h-10c-15 0 -22 -6 -22 -21v-43c0 -15 7 -21 22 -21h160c18 0 32 -14 32 -32v-96zM235 -64h-22c-18 0 -32 14 -32 32v117c0 33 16 54 43 54s43 -21 43 -54v-117c0 -18 -14 -32 -32 -32zM224 117
c-5 0 -21 0 -21 -32v-117c0 -6 4 -11 10 -11h22c6 0 10 5 10 11v117c0 32 -16 32 -21 32z" />
    <glyph glyph-name="uniFB73" unicode="&#x684;" horiz-adv-x="427" arabic-form="final" 
d="M309 -43c-6 0 -10 5 -10 11v117h10c53 0 96 43 96 96v54c0 106 -86 192 -192 192s-192 -86 -192 -192v-54c0 -53 43 -96 96 -96h11v-117c0 -6 -5 -11 -11 -11s-10 5 -10 11v96c-60 5 -107 56 -107 117v54c0 118 95 213 213 213s214 -95 214 -213v-54
c0 -61 -47 -112 -107 -117v-96c0 -6 -5 -11 -11 -11zM181 -43c-6 0 -10 5 -10 11v107c0 6 4 10 10 10s11 -4 11 -10v-107c0 -6 -5 -11 -11 -11zM245 -43c-6 0 -10 5 -10 11v107c0 6 4 10 10 10s11 -4 11 -10v-107c0 -6 -5 -11 -11 -11zM309 107c-41 0 -74 33 -74 74
s33 75 74 75s75 -34 75 -75s-34 -74 -75 -74zM309 235c-29 0 -53 -25 -53 -54s24 -53 53 -53s54 24 54 53s-25 54 -54 54zM117 107c-41 0 -74 33 -74 74s33 75 74 75s75 -34 75 -75s-34 -74 -75 -74zM117 235c-29 0 -53 -25 -53 -54s24 -53 53 -53s54 24 54 53
s-25 54 -54 54zM13 256c-6 0 -10 5 -10 11s4 10 10 10c29 0 72 20 72 75c0 6 5 11 11 11s11 -5 11 -11c0 -63 -48 -96 -94 -96zM413 256c-46 0 -93 33 -93 96c0 6 5 11 11 11s10 -5 10 -11c0 -55 43 -75 72 -75c6 0 11 -4 11 -10s-5 -11 -11 -11zM224 107v0h-21
c-4 0 -7 2 -9 5s-3 7 -1 10l11 21c4 7 15 7 19 0l10 -19c1 -2 2 -5 2 -7c0 -6 -5 -10 -11 -10z" />
    <glyph glyph-name="uniFBF6" unicode="&#xfbf6;" arabic-form="isolated" 
d="M416 384c53 0 96 -43 96 -96v-192c0 -53 -43 -96 -96 -96h-320c-53 0 -96 43 -96 96v192c0 53 43 96 96 96h320zM480 96v192c0 17 -7 33 -19 45s-28 19 -45 19h-320c-17 0 -33 -7 -45 -19s-19 -28 -19 -45v-192c0 -17 7 -33 19 -45s28 -19 45 -19h320c17 0 33 7 45 19
s19 28 19 45zM192 64v256l160 -128z" />
    <glyph glyph-name="uniFBB1" unicode="&#x6d3;" arabic-form="final" 
d="M501 128c-5 0 -9 3 -10 8c0 2 -10 35 -43 35c-35 0 -55 -37 -55 -37c-2 -4 -5 -6 -9 -6v0c-4 0 -8 2 -10 6c0 0 -19 37 -54 37s-55 -37 -55 -37c-2 -4 -6 -6 -10 -6c-4 1 -8 4 -9 8c0 1 -10 35 -54 35s-54 -35 -54 -35c-1 -5 -5 -8 -10 -8s-9 3 -10 8c0 1 -10 35 -54 35
c-15 0 -26 -4 -33 -11c-9 -9 -9 -21 -9 -21c0 -6 -5 -11 -11 -11s-11 4 -11 10c-3 70 22 137 71 188s114 79 185 79s136 -28 185 -79s74 -118 71 -188c0 -5 -5 -9 -10 -10h-1zM320 192c32 0 53 -20 64 -34c11 14 32 34 64 34c18 0 31 -6 41 -15c-6 50 -27 98 -63 135
c-45 47 -105 72 -170 72s-125 -25 -170 -72c-35 -36 -56 -82 -63 -131c11 7 25 11 41 11c33 0 53 -15 64 -30c11 15 31 30 64 30c34 0 55 -16 66 -32c12 14 32 32 62 32zM256 384c-6 0 -11 5 -11 11v42c0 6 5 11 11 11s11 -5 11 -11v-42c0 -6 -5 -11 -11 -11zM283 -56
c-19 0 -38 12 -38 35v160c0 6 5 10 11 10s11 -4 11 -10v-160c0 -13 14 -14 16 -14s16 1 16 14c0 6 4 10 10 10s11 -4 11 -10c0 -23 -18 -35 -37 -35z" />
    <glyph glyph-name="uniFB84" unicode="&#x68c;" horiz-adv-x="213" arabic-form="isolated" 
d="M203 64h-192c-6 0 -11 5 -11 11v266c0 59 48 107 107 107s106 -48 106 -107v-266c0 -6 -4 -11 -10 -11zM21 85h171v256c0 47 -38 86 -85 86s-86 -39 -86 -86v-256zM107 -64c-6 0 -11 5 -11 11v128c0 6 5 10 11 10s10 -4 10 -10v-128c0 -6 -4 -11 -10 -11zM160 181
c-18 0 -32 14 -32 32v86c0 6 5 10 11 10s10 -4 10 -10v-86c0 -6 5 -10 11 -10s11 -5 11 -11s-5 -11 -11 -11zM75 267c-18 0 -32 14 -32 32v42c0 6 4 11 10 11s11 -5 11 -11v-42c0 -6 5 -11 11 -11s10 5 10 11s5 10 11 10s11 -4 11 -10c0 -18 -14 -32 -32 -32zM139 288
c-6 0 -11 5 -11 11s-5 10 -11 10s-10 -4 -10 -10s-5 -11 -11 -11s-11 5 -11 11c0 18 14 32 32 32s32 -14 32 -32c0 -6 -4 -11 -10 -11z" />
    <glyph glyph-name="uniFB5D" unicode="&#x680;" horiz-adv-x="469" arabic-form="medial" 
d="M235 -65c-2 0 -4 1 -5 2l-224 106c-4 2 -6 6 -6 10v330c0 4 2 8 5 10s7 2 10 0l220 -104l219 104c3 2 7 2 10 0s5 -6 5 -10v-330c0 -4 -2 -8 -6 -10l-224 -106c-1 -1 -2 -2 -4 -2zM21 60l214 -102l213 102v307l-209 -100c-3 -1 -6 -1 -9 0l-209 100v-307zM235 318
l-186 88c-5 3 -8 10 -5 15s9 7 14 5l177 -85l176 85c5 2 12 0 15 -5s0 -12 -5 -15zM224 -54v331h21v-331h-21z" />
    <glyph glyph-name="uniFB50" unicode="&#x671;" arabic-form="isolated" 
d="M152 30c14 0 27 7 35 19c13 19 7 45 -12 58l-33 22c6 2 12 2 18 2c37 0 67 -30 67 -67s-30 -67 -67 -67c-36 0 -65 28 -67 64l36 -24c7 -5 15 -7 23 -7v0zM427 448c47 0 85 -38 85 -85v-342c0 -47 -38 -85 -85 -85h-342c-47 0 -85 38 -85 85v102l61 -41
c-6 -32 4 -65 28 -89c39 -39 103 -39 142 0c24 24 34 58 28 89l125 111c23 3 45 14 63 32c44 44 44 114 0 158s-114 44 -158 0c-18 -18 -29 -40 -32 -63v0l-102 -155c-16 -1 -32 -6 -46 -14l-109 73v139c0 47 38 85 85 85h342zM448 304c0 -44 -36 -80 -80 -80s-80 36 -80 80
s36 80 80 80s80 -36 80 -80zM320 304c0 -27 21 -48 48 -48s48 21 48 48s-21 48 -48 48s-48 -21 -48 -48z" />
    <glyph glyph-name="uniFBA0" unicode="&#x6bb;" horiz-adv-x="341" arabic-form="isolated" 
d="M64 -43c-35 0 -64 29 -64 64s29 64 64 64h64v-64c0 -34 -30 -64 -64 -64zM64 64c-24 0 -43 -19 -43 -43s19 -42 43 -42s43 22 43 42v43h-43zM277 21c-35 0 -64 29 -64 64s29 64 64 64h64v-64c0 -34 -30 -64 -64 -64zM277 128c-24 0 -42 -19 -42 -43s18 -42 42 -42
s43 22 43 42v43h-43zM128 75h-21v263l234 94v-293h-21v261l-192 -77v-248zM113 266l214 85l8 -20l-214 -85z" />
    <glyph glyph-name="uniFB8D" unicode="&#x691;" horiz-adv-x="427" arabic-form="final" 
d="M373 -64h-320c-29 0 -53 24 -53 53v406c0 29 24 53 53 53h320c29 0 54 -24 54 -53v-406c0 -29 -25 -53 -54 -53zM53 427c-18 0 -32 -14 -32 -32v-406c0 -18 14 -32 32 -32h320c18 0 32 14 32 32v406c0 18 -14 32 -32 32h-320zM215 11v0c12 0 21 -10 21 -22
s-9 -21 -21 -21s-21 9 -21 21s9 22 21 22zM373 21h-320c-6 0 -10 5 -10 11v341c0 6 4 11 10 11h320c6 0 11 -5 11 -11v-341c0 -6 -5 -11 -11 -11zM64 43h299v320h-299v-320zM215 416v0c6 0 11 -5 11 -11s-5 -10 -11 -10s-11 4 -11 10s5 11 11 11z" />
    <glyph glyph-name="uniFB9A" unicode="&#x6b1;" horiz-adv-x="504" arabic-form="isolated" 
d="M380 188l16 16l60 -61l-15 -15zM184 385l15 15l61 -61l-15 -15zM192 -56c-51 0 -100 20 -136 56c-75 75 -75 196 0 271l174 174c4 4 11 4 15 0l60 -60c2 -2 3 -5 3 -8s-1 -6 -3 -8l-169 -169c-33 -33 -33 -87 0 -120c16 -16 37 -25 60 -25s45 9 61 25l169 169
c4 4 11 4 15 0l60 -61c2 -2 3 -4 3 -7s-1 -6 -3 -8l-173 -173c-36 -36 -85 -56 -136 -56zM237 422l-166 -166c-67 -67 -67 -174 0 -241c32 -32 75 -50 121 -50s89 18 121 50l166 166l-46 45l-161 -161c-20 -20 -48 -32 -76 -32c-29 0 -55 12 -75 32c-42 42 -42 108 0 150
l161 162z" />
    <glyph glyph-name="uniFB9D" unicode="&#x6b1;" arabic-form="medial" 
d="M256 299c-41 0 -75 33 -75 74s34 75 75 75s75 -34 75 -75s-34 -74 -75 -74zM256 427c-29 0 -53 -25 -53 -54s24 -53 53 -53s53 24 53 53s-24 54 -53 54zM288 43h-64c-6 0 -11 4 -11 10v85c-47 25 -64 89 -64 139c0 6 5 11 11 11h192c6 0 11 -5 11 -11
c0 -50 -17 -114 -64 -139v-85c0 -6 -5 -10 -11 -10zM235 64h42v81c0 4 3 8 7 10c41 17 55 74 57 112h-170c2 -38 16 -95 57 -112c4 -2 7 -6 7 -10v-81zM256 -11c-59 0 -160 10 -160 48c0 19 25 33 73 41c6 1 11 -2 12 -8s-3 -12 -9 -13c-43 -7 -54 -18 -55 -20
c3 -9 53 -26 139 -26s136 18 139 27c-1 2 -12 12 -55 19c-6 1 -10 7 -9 13s7 9 13 8c48 -8 72 -22 72 -41c0 -38 -101 -48 -160 -48zM256 -64c-166 0 -256 49 -256 96c0 51 87 80 169 91c6 1 11 -4 12 -10s-3 -11 -9 -12c-99 -13 -151 -44 -151 -69c0 -35 97 -75 235 -75
s235 40 235 75c0 25 -52 56 -151 69c-6 1 -10 6 -9 12s6 11 12 10c82 -11 169 -40 169 -91c0 -47 -90 -96 -256 -96z" />
    <glyph glyph-name="uniFB85" unicode="&#x68c;" arabic-form="final" 
d="M157 312l-15 16l117 117c2 2 5 3 8 3v0c3 0 5 -1 7 -3l116 -118l-15 -14l-108 109zM512 -64h-512v395h512v-395zM21 -43h470v352h-470v-352zM469 -21h-426v309h426v-309zM64 -0h384v267h-384v-267zM290 -17c-4 4 -71 87 -98 181c-27 -94 -94 -177 -98 -181l-17 13
c1 1 104 127 104 239c0 6 5 10 11 10s11 -4 11 -10c0 -112 103 -238 104 -239zM139 53v22h106v-22h-106zM405 -11h-21v64h-21v-64h-22v75c0 6 5 11 11 11h43c6 0 10 -5 10 -11v-75zM405 64h-21v64c0 6 5 11 11 11h64v-22h-54v-53z" />
    <glyph glyph-name="uniFB70" unicode="&#x6a6;" horiz-adv-x="427" arabic-form="initial" 
d="M267 -64h-107c-24 0 -43 19 -43 43c0 19 28 70 34 80c2 3 5 5 9 5s7 -2 9 -5l12 -18l23 39c4 6 14 6 18 0l24 -39l12 18c2 3 5 5 9 5s7 -2 9 -5c6 -10 33 -61 33 -80c0 -24 -18 -43 -42 -43zM161 33c-12 -23 -22 -47 -22 -54c0 -12 9 -22 21 -22h107c12 0 21 10 21 22
c0 7 -10 31 -22 54l-12 -18c-2 -3 -5 -4 -9 -4s-7 2 -9 5l-23 38l-23 -38c-2 -3 -4 -5 -8 -5s-8 1 -10 4zM331 107h-235c-29 0 -53 24 -53 53v235c0 6 4 10 10 10h320c6 0 11 -4 11 -10v-235c0 -29 -24 -53 -53 -53zM64 384v-224c0 -18 14 -32 32 -32h235c18 0 32 14 32 32
v224h-299zM53 320h-42c-6 0 -11 5 -11 11s5 10 11 10h42c6 0 11 -4 11 -10s-5 -11 -11 -11zM416 327h-43c-6 0 -10 5 -10 11s4 10 10 10h43c6 0 11 -4 11 -10s-5 -11 -11 -11zM395 384h-363c-6 0 -11 5 -11 11s5 10 11 10h363c6 0 10 -4 10 -10s-4 -11 -10 -11zM256 384
c-6 0 -11 5 -11 11c0 18 -14 32 -32 32s-32 -14 -32 -32c0 -6 -4 -11 -10 -11s-11 5 -11 11c0 29 24 53 53 53s54 -24 54 -53c0 -6 -5 -11 -11 -11z" />
    <glyph glyph-name="uniFB76" unicode="&#x683;" arabic-form="isolated" 
d="M437 -64h-362v437h362v-437zM96 -43h320v395h-320v-395zM373 352h-234v85h234v-85zM160 373h192v43h-192v-43zM171 11c-6 0 -11 4 -11 10v267c0 6 5 11 11 11s10 -5 10 -11v-267c0 -6 -4 -10 -10 -10zM256 11c-6 0 -11 4 -11 10v267c0 6 5 11 11 11s11 -5 11 -11v-267
c0 -6 -5 -10 -11 -10zM341 11c-6 0 -10 4 -10 10v267c0 6 4 11 10 11s11 -5 11 -11v-267c0 -6 -5 -10 -11 -10zM0 352v21h512v-21h-512z" />
    <glyph glyph-name="uniFB8F" unicode="&#x6a9;" arabic-form="final" 
d="M427 -64c-35 0 -64 29 -64 64v352c0 12 -10 21 -22 21h-10v22h10c24 0 43 -19 43 -43v-352c0 -24 19 -43 43 -43s42 19 42 43v160h22v-160c0 -35 -29 -64 -64 -64zM480 149c-18 0 -32 14 -32 32v64c0 18 14 32 32 32s32 -14 32 -32v-64c0 -18 -14 -32 -32 -32zM480 256
c-6 0 -11 -5 -11 -11v-64c0 -6 5 -10 11 -10s11 4 11 10v64c0 6 -5 11 -11 11zM469 171h-21c-24 0 -43 18 -43 42s19 43 43 43h21v-85zM448 235c-12 0 -21 -10 -21 -22s9 -21 21 -21v43zM288 -64h-235c-29 0 -53 24 -53 53v406c0 29 24 53 53 53h235c29 0 53 -24 53 -53
v-406c0 -29 -24 -53 -53 -53zM53 427c-18 0 -32 -14 -32 -32v-406c0 -18 14 -32 32 -32h235c18 0 32 14 32 32v406c0 18 -14 32 -32 32h-235zM331 341h-320c-6 0 -11 5 -11 11s5 11 11 11h320c6 0 10 -5 10 -11s-4 -11 -10 -11zM331 21h-320c-6 0 -11 5 -11 11s5 11 11 11
h320c6 0 10 -5 10 -11s-4 -11 -10 -11zM171 11v0c12 0 21 -10 21 -22s-9 -21 -21 -21s-22 9 -22 21s10 22 22 22zM171 405v0c6 0 10 -4 10 -10s-4 -11 -10 -11s-11 5 -11 11s5 10 11 10z" />
    <glyph glyph-name="uniFB63" unicode="&#x67f;" arabic-form="final" 
d="M107 -64c-24 0 -43 19 -43 43s19 42 43 42s42 -18 42 -42s-18 -43 -42 -43zM107 0c-12 0 -22 -9 -22 -21s10 -22 22 -22s21 10 21 22s-9 21 -21 21zM341 -64c-24 0 -42 19 -42 43s18 42 42 42s43 -18 43 -42s-19 -43 -43 -43zM341 0c-12 0 -21 -9 -21 -21s9 -22 21 -22
s22 10 22 22s-10 21 -22 21zM224 277c-6 0 -11 5 -11 11v149c0 6 5 11 11 11s11 -5 11 -11v-149c0 -6 -5 -11 -11 -11zM224 277c-3 0 -6 1 -8 3l-64 64c-4 4 -4 12 0 16s12 4 16 0l56 -57l56 57c4 4 12 4 16 0s4 -12 0 -16l-64 -64c-2 -2 -5 -3 -8 -3zM341 0h-234
c-6 0 -11 5 -11 11s5 10 11 10h226l83 355c1 5 6 8 11 8h74c6 0 11 -5 11 -11s-5 -10 -11 -10h-66l-83 -355c-1 -5 -6 -8 -11 -8zM352 43h-277c-5 0 -9 3 -10 7l-64 192c-1 3 -1 7 1 10s6 4 9 4h384c6 0 10 -5 10 -11s-4 -10 -10 -10h-370l57 -171h270c6 0 11 -5 11 -11
s-5 -10 -11 -10z" />
    <glyph glyph-name="uniFB6D" unicode="&#x6a4;" arabic-form="medial" 
d="M469 -0h-426c-24 0 -43 20 -43 45v316c0 25 19 44 43 44h426c24 0 43 -19 43 -44v-316c0 -25 -19 -45 -43 -45zM43 384c-12 0 -22 -10 -22 -23v-316c0 -13 10 -24 22 -24h426c12 0 22 11 22 24v316c0 13 -10 23 -22 23h-426zM405 -43h-298c-6 0 -11 5 -11 11s5 11 11 11
h298c6 0 11 -5 11 -11s-5 -11 -11 -11zM256 -43c-6 0 -11 5 -11 11v43c0 6 5 10 11 10s11 -4 11 -10v-43c0 -6 -5 -11 -11 -11zM235 53c0 14 7 22 21 22s21 -8 21 -22s-7 -21 -21 -21s-21 7 -21 21zM11 85v22h490v-22h-490z" />
    <glyph glyph-name="uniFB5C" unicode="&#x680;" horiz-adv-x="469" arabic-form="initial" 
d="M224 -64h-171c-29 0 -53 24 -53 53v406c0 6 5 10 11 10s10 -4 10 -10v-406c0 -18 14 -32 32 -32h171c6 0 11 -4 11 -10s-5 -11 -11 -11zM416 203c-6 0 -11 4 -11 10v128h-352c-29 0 -53 25 -53 54s24 53 53 53h363c6 0 11 -5 11 -11s-5 -10 -11 -10h-363
c-18 0 -32 -14 -32 -32s14 -32 32 -32h374v-150c0 -6 -5 -10 -11 -10zM341 -64c-71 0 -128 57 -128 128s57 128 128 128s128 -57 128 -128s-57 -128 -128 -128zM341 171c-59 0 -106 -48 -106 -107s47 -107 106 -107s107 48 107 107s-48 107 -107 107zM341 0
c-6 0 -10 5 -10 11v106c0 6 4 11 10 11s11 -5 11 -11v-106c0 -6 -5 -11 -11 -11zM341 -4l-50 50c-4 4 -4 11 0 15s11 4 15 0l35 -35l35 35c4 4 12 4 16 0s4 -11 0 -15zM53 384v21h352v-21h-352z" />
    <glyph glyph-name="uniFB89" unicode="&#x688;" arabic-form="final" 
d="M437 160h-21v32c0 88 -72 160 -160 160s-160 -72 -160 -160v-32h-21v32c0 100 81 181 181 181s181 -81 181 -181v-32zM53 11c-29 0 -53 24 -53 53s24 53 53 53v-21c-18 0 -32 -14 -32 -32s14 -32 32 -32v-21zM107 -43h-22c-24 0 -42 19 -42 43v128c0 24 18 43 42 43h22
c24 0 42 -19 42 -43v-128c0 -24 -18 -43 -42 -43zM85 149c-12 0 -21 -9 -21 -21v-128c0 -12 9 -21 21 -21h22c12 0 21 9 21 21v128c0 12 -9 21 -21 21h-22zM459 11v21c18 0 32 14 32 32s-14 32 -32 32v21c29 0 53 -24 53 -53s-24 -53 -53 -53zM416 -43c-29 0 -53 25 -53 54
v106c0 29 24 54 53 54s53 -25 53 -54v-106c0 -29 -24 -54 -53 -54zM416 149c-18 0 -32 -14 -32 -32v-106c0 -18 14 -32 32 -32s32 14 32 32v106c0 18 -14 32 -32 32z" />
    <glyph glyph-name="uniFB92" unicode="&#x6af;" arabic-form="isolated" 
d="M384 64h-256c-3 0 -6 1 -8 4c-22 30 -35 66 -35 103c0 94 77 170 171 170s171 -76 171 -170c0 -37 -13 -73 -35 -103c-2 -3 -5 -4 -8 -4zM134 85h244c18 25 27 55 27 86c0 82 -67 149 -149 149s-149 -67 -149 -149c0 -31 9 -61 27 -86zM96 160c-24 0 -64 11 -64 85
c0 26 -15 32 -21 32s-11 5 -11 11s5 11 11 11c17 0 42 -15 42 -54c0 -64 32 -64 43 -64c6 0 11 -4 11 -10s-5 -11 -11 -11zM437 117c-10 0 -20 3 -30 7c-5 2 -7 9 -5 14s9 7 14 5c7 -3 14 -4 21 -4c29 0 54 24 54 53s-25 53 -54 53c-12 0 -23 -4 -32 -11c-5 -4 -11 -3 -15 2
s-3 11 2 15c13 10 29 16 45 16c41 0 75 -34 75 -75s-34 -75 -75 -75zM384 256h-256c-6 0 -11 5 -11 11s5 10 11 10h256c6 0 11 -4 11 -10s-5 -11 -11 -11zM256 320c-24 0 -43 19 -43 43s19 42 43 42s43 -18 43 -42s-19 -43 -43 -43zM256 384c-12 0 -21 -9 -21 -21
s9 -22 21 -22s21 10 21 22s-9 21 -21 21zM459 21h-406c-6 0 -10 5 -10 11s4 11 10 11h406c6 0 10 -5 10 -11s-4 -11 -10 -11zM107 -11c-6 0 -11 5 -11 11v32c0 6 5 11 11 11s10 -5 10 -11v-32c0 -6 -4 -11 -10 -11zM427 -11c-6 0 -11 5 -11 11v32c0 6 5 11 11 11
s10 -5 10 -11v-32c0 -6 -4 -11 -10 -11z" />
    <glyph glyph-name="uniFB5A" unicode="&#x680;" arabic-form="isolated" 
d="M480 -64h-469c-6 0 -11 5 -11 11v64c0 6 5 10 11 10h202v192h-138c-6 0 -11 5 -11 11v213c0 6 5 11 11 11h394c24 0 43 -19 43 -43v-234l-21 -225c-1 -5 -5 -10 -11 -10zM21 -43h449l21 215v233c0 12 -10 22 -22 22h-384v-192h139c6 0 11 -5 11 -11v-213
c0 -6 -5 -11 -11 -11h-203v-43zM405 -53h-21v234c0 6 5 11 11 11h106v-21h-96v-224zM501 320h-128c-6 0 -10 5 -10 11s4 10 10 10h128c6 0 11 -4 11 -10s-5 -11 -11 -11zM501 277h-128c-6 0 -10 5 -10 11s4 11 10 11h128c6 0 11 -5 11 -11s-5 -11 -11 -11zM501 235h-128
c-6 0 -10 4 -10 10s4 11 10 11h128c6 0 11 -5 11 -11s-5 -10 -11 -10zM181 96h-85c-6 0 -11 5 -11 11v42c0 6 5 11 11 11h85c6 0 11 -5 11 -11v-42c0 -6 -5 -11 -11 -11zM107 117h64v22h-64v-22zM96 117h-85c-6 0 -11 5 -11 11s5 11 11 11h85c6 0 11 -5 11 -11
s-5 -11 -11 -11zM149 149v75h22v-75h-22zM107 149v75h21v-75h-21zM149 320c-24 0 -42 19 -42 43s18 42 42 42s43 -18 43 -42s-19 -43 -43 -43zM149 384c-12 0 -21 -9 -21 -21s9 -22 21 -22s22 10 22 22s-10 21 -22 21zM139 75c-6 0 -11 4 -11 10v22c0 6 5 10 11 10
s10 -4 10 -10v-22c0 -6 -4 -10 -10 -10z" />
    <glyph glyph-name="uniFBF4" unicode="&#xfbf4;" horiz-adv-x="415" arabic-form="isolated" 
d="M256 121v0c8 8 20 5 20 5l121 -39s18 -3 18 -15c0 -8 -6 -17 -6 -17l-51 -74s-10 -7 -19 -7s-20 14 -20 14l-65 109s-7 15 2 24zM250 176v0c-6 10 0 20 0 20l68 108s7 14 19 13c10 -1 16 -9 16 -9l58 -68s4 -11 2 -20s-19 -16 -19 -16l-121 -35s-17 -4 -23 7zM192 218v0
c-13 -3 -23 8 -23 8l-105 142s-15 17 -8 29c5 8 15 12 15 12l101 37c4 1 9 5 24 -4c10 -6 12 -27 12 -27l1 -173s-3 -20 -17 -24zM167 148v0c0 -18 -9 -18 -14 -21l-126 -28s-18 -7 -24 3c-4 7 -3 22 -3 22l7 87c1 6 6 11 12 15c8 5 24 -2 24 -2l108 -55s16 -8 16 -21z
M199 101v0c10 -5 10 -17 10 -17l-2 -126s2 -18 -9 -21c-8 -2 -18 0 -18 0l-85 27c-6 3 -10 7 -13 15c-3 9 8 23 8 23l85 93s13 12 24 6z" />
    <glyph glyph-name="uniFB6B" unicode="&#x6a4;" horiz-adv-x="363" arabic-form="final" 
d="M309 -64h-256c-6 0 -10 4 -10 10l-22 341c0 3 1 6 3 8s5 4 8 4h299c3 0 5 -2 7 -4s3 -5 3 -8l-21 -341c0 -6 -5 -10 -11 -10zM63 -43h236l20 320h-276zM352 277h-341c-6 0 -11 5 -11 11v85c0 6 5 11 11 11h341c6 0 11 -5 11 -11v-85c0 -6 -5 -11 -11 -11zM21 299h320v64
h-320v-64zM331 363v0h-299c-3 0 -7 1 -9 4s-2 7 -1 10l21 64c1 4 5 7 10 7h256c5 0 9 -3 10 -7l21 -62c1 -2 2 -4 2 -6c0 -6 -5 -10 -11 -10zM47 384h269l-14 43h-241zM325 192h-288c-6 0 -10 5 -10 11s4 10 10 10h288c6 0 11 -4 11 -10s-5 -11 -11 -11zM45 64v21h272v-21
h-272zM213 128h-64c-6 0 -10 5 -10 11s4 10 10 10h64c6 0 11 -4 11 -10s-5 -11 -11 -11z" />
    <glyph glyph-name="uniFB65" unicode="&#x67f;" arabic-form="medial" 
d="M469 32h-68v21h68c12 0 22 10 22 22v50l-43 75v173c0 29 -24 54 -53 54h-278c-29 0 -53 -25 -53 -54v-173l-43 -75v-50c0 -12 10 -22 22 -22h67v-21h-67c-24 0 -43 19 -43 43v56l43 75v167c0 41 33 75 74 75h278c41 0 74 -34 74 -75v-167l43 -75v-56
c0 -24 -19 -43 -43 -43zM488 -64h-460l18 18c60 60 61 130 61 131v11h10h288v-11c0 -1 1 -81 60 -130zM77 -43h356c-38 43 -46 96 -48 118h-258c-2 -21 -11 -71 -50 -118zM256 246c-41 0 -74 33 -74 74s33 74 74 74s74 -33 74 -74s-33 -74 -74 -74zM256 374
c-30 0 -54 -24 -54 -54s24 -54 54 -54s54 24 54 54s-24 54 -54 54zM123 234c-9 0 -16 7 -16 16s7 16 16 16s16 -7 16 -16s-7 -16 -16 -16zM123 255c-3 0 -6 -2 -6 -5s3 -5 6 -5s5 2 5 5s-2 5 -5 5zM427 330h-75v64h75v-64zM373 351h32v22h-32v-22zM224 380v57h21v-57h-21z
M267 380v57h21v-57h-21zM224 203v57h21v-57h-21zM267 203v57h21v-57h-21zM53 192v21h406v-21h-406zM11 117v21h490v-21h-490zM43 75v21h426v-21h-426zM87 -21v21h336v-21h-336z" />
    <glyph glyph-name="uniFB96" unicode="&#x6b3;" horiz-adv-x="384" arabic-form="isolated" 
d="M171 128c0 14 7 21 21 21s21 -7 21 -21s-7 -21 -21 -21s-21 7 -21 21zM192 43c-3 0 -6 1 -8 3s-3 4 -3 7v64c0 3 1 6 3 8s5 3 8 3s6 -1 8 -3s3 -5 3 -8v-64c0 -3 -1 -5 -3 -7s-5 -3 -8 -3zM384 -64h-384v320h384v-320zM21 -43h342v278h-342v-278zM320 245h-21v75
c0 29 -11 54 -32 75s-46 32 -75 32s-54 -11 -75 -32s-32 -46 -32 -75v-75h-21v75c0 35 13 65 38 90s55 38 90 38s65 -13 90 -38s38 -55 38 -90v-75z" />
    <glyph glyph-name="uniFB9F" unicode="&#x6ba;" arabic-form="final" 
d="M352 210c-65 0 -117 52 -117 117s52 117 117 117s117 -52 117 -117s-52 -117 -117 -117zM352 423c-53 0 -96 -43 -96 -96s43 -96 96 -96s96 43 96 96s-43 96 -96 96zM501 348v0c6 0 11 -4 11 -10s-5 -11 -11 -11s-10 5 -10 11s4 10 10 10zM501 -46c-6 0 -10 4 -10 10v342
c0 6 4 10 10 10s11 -4 11 -10v-342c0 -6 -5 -10 -11 -10zM103 -50c-51 0 -89 31 -103 86c-1 5 1 11 6 13s10 0 13 -4c10 -14 24 -22 40 -22v0c10 0 19 3 26 9c7 7 11 16 11 28c0 45 36 69 69 69c14 0 28 -4 38 -12c10 8 23 12 37 12c33 0 69 -24 69 -69c0 -26 19 -37 37 -37
c16 0 30 8 40 22c3 4 8 6 13 4s7 -8 6 -13c-14 -55 -51 -86 -102 -86c-39 0 -78 19 -100 48c-22 -29 -61 -48 -100 -48v0zM203 28c4 0 7 -1 9 -5c15 -29 54 -52 91 -52c18 0 46 5 66 34c-7 -3 -15 -4 -23 -4c-29 0 -58 20 -58 59c0 31 -24 48 -48 48c-12 0 -22 -4 -29 -12
c-4 -4 -12 -4 -16 0c-7 8 -18 12 -30 12c-24 0 -48 -17 -48 -48c0 -18 -5 -32 -17 -43c-11 -10 -26 -16 -41 -16v0c-8 0 -15 1 -22 4c20 -29 48 -34 66 -34c37 0 75 23 90 52c2 4 6 5 10 5zM352 252c-6 0 -11 5 -11 11s5 11 11 11c29 0 53 24 53 53c0 6 5 11 11 11
s11 -5 11 -11c0 -41 -34 -75 -75 -75z" />
    </font>
</defs>
</svg>
